G04 #@! TF.FileFunction,Legend,Top*
%FSLAX46Y46*%
G04 Gerber Fmt 4.6, Leading zero omitted, Abs format (unit mm)*
G04 Created by KiCad (PCBNEW (2014-12-04 BZR 5312)-product) date 4/7/2015 10:09:48 PM*
%MOMM*%
G01*
G04 APERTURE LIST*
%ADD10C,0.100000*%
%ADD11C,0.150000*%
G04 APERTURE END LIST*
D10*
D11*
X162886120Y-76102400D02*
X163646120Y-76092400D01*
X162885120Y-76606400D02*
X162885120Y-77114400D01*
X162885120Y-77114400D02*
X163647120Y-77114400D01*
X163647120Y-77114400D02*
X163647120Y-76606400D01*
X162885120Y-76098400D02*
X162885120Y-75590400D01*
X162885120Y-75590400D02*
X163647120Y-75590400D01*
X163647120Y-75590400D02*
X163647120Y-76098400D01*
X163656280Y-78431200D02*
X162896280Y-78441200D01*
X163657280Y-77927200D02*
X163657280Y-77419200D01*
X163657280Y-77419200D02*
X162895280Y-77419200D01*
X162895280Y-77419200D02*
X162895280Y-77927200D01*
X163657280Y-78435200D02*
X163657280Y-78943200D01*
X163657280Y-78943200D02*
X162895280Y-78943200D01*
X162895280Y-78943200D02*
X162895280Y-78435200D01*
X163635960Y-80331120D02*
X162875960Y-80341120D01*
X163636960Y-79827120D02*
X163636960Y-79319120D01*
X163636960Y-79319120D02*
X162874960Y-79319120D01*
X162874960Y-79319120D02*
X162874960Y-79827120D01*
X163636960Y-80335120D02*
X163636960Y-80843120D01*
X163636960Y-80843120D02*
X162874960Y-80843120D01*
X162874960Y-80843120D02*
X162874960Y-80335120D01*
X162306000Y-89916000D02*
X164084000Y-89916000D01*
X164084000Y-89916000D02*
X164084000Y-84074000D01*
X164084000Y-84074000D02*
X162306000Y-84074000D01*
X162306000Y-84074000D02*
X162306000Y-89916000D01*
M02*
