G04 #@! TF.FileFunction,Copper,L2,Bot,Signal*
%FSLAX46Y46*%
G04 Gerber Fmt 4.6, Leading zero omitted, Abs format (unit mm)*
G04 Created by KiCad (PCBNEW (2014-12-04 BZR 5312)-product) date 4/7/2015 12:43:42 PM*
%MOMM*%
G01*
G04 APERTURE LIST*
%ADD10C,0.100000*%
%ADD11C,1.100000*%
%ADD12C,0.609600*%
%ADD13C,0.508000*%
%ADD14C,0.203200*%
%ADD15C,0.254000*%
G04 APERTURE END LIST*
D10*
D11*
X131953000Y-46101000D03*
X130683000Y-46101000D03*
X122809000Y-46101000D03*
X121539000Y-46101000D03*
X141224000Y-39751000D03*
X139954000Y-39751000D03*
X138684000Y-39751000D03*
X137414000Y-39751000D03*
X137414000Y-41021000D03*
X137414000Y-42291000D03*
X137414000Y-43561000D03*
X137414000Y-44831000D03*
X137414000Y-46101000D03*
X138684000Y-41021000D03*
X138684000Y-42291000D03*
X138684000Y-43561000D03*
X138684000Y-44831000D03*
X138684000Y-46101000D03*
X139954000Y-41021000D03*
X139954000Y-42291000D03*
X139954000Y-43561000D03*
X139954000Y-44831000D03*
X139954000Y-46101000D03*
X141224000Y-41021000D03*
X141224000Y-42291000D03*
X141224000Y-43561000D03*
X141224000Y-44831000D03*
X141224000Y-46101000D03*
X137414000Y-31496000D03*
X138684000Y-31496000D03*
X139954000Y-31496000D03*
X141224000Y-31496000D03*
X128651000Y-43434000D03*
X135001000Y-43434000D03*
X133731000Y-43434000D03*
X132461000Y-43434000D03*
X131191000Y-43434000D03*
X129921000Y-43434000D03*
X125476000Y-46101000D03*
X126746000Y-46101000D03*
X128016000Y-46101000D03*
D12*
X133858000Y-31496000D03*
X127381000Y-30353000D03*
X121666000Y-35560000D03*
D13*
X130302000Y-41910000D03*
X131699000Y-40386000D03*
X135889990Y-37926501D03*
X139954000Y-36068000D03*
X132461000Y-35814000D03*
X137414000Y-35814000D03*
X127635000Y-37211000D03*
X127640080Y-44719240D03*
D14*
X130302000Y-41910000D02*
X131699000Y-40513000D01*
X131699000Y-40513000D02*
X131699000Y-40386000D01*
D15*
X136249200Y-37926501D02*
X136583701Y-37592000D01*
X135889990Y-37926501D02*
X136249200Y-37926501D01*
X136583701Y-37592000D02*
X139573000Y-37592000D01*
X139954000Y-37211000D02*
X139954000Y-36068000D01*
X139573000Y-37592000D02*
X139954000Y-37211000D01*
X132461000Y-35814000D02*
X137414000Y-35814000D01*
D14*
X128651000Y-38227000D02*
X128651000Y-43434000D01*
X127635000Y-37211000D02*
X128651000Y-38227000D01*
X125958600Y-44719240D02*
X125476000Y-45201840D01*
X125476000Y-45201840D02*
X125476000Y-46101000D01*
X127640080Y-44719240D02*
X125958600Y-44719240D01*
D15*
G36*
X141809000Y-47321000D02*
X136186206Y-47321000D01*
X136186206Y-43199323D01*
X136006180Y-42763628D01*
X135673125Y-42429991D01*
X135237745Y-42249206D01*
X134766323Y-42248794D01*
X134330628Y-42428820D01*
X133996991Y-42761875D01*
X133816206Y-43197255D01*
X133815794Y-43668677D01*
X133995820Y-44104372D01*
X134328875Y-44438009D01*
X134764255Y-44618794D01*
X135235677Y-44619206D01*
X135671372Y-44439180D01*
X136005009Y-44106125D01*
X136185794Y-43670745D01*
X136186206Y-43199323D01*
X136186206Y-47321000D01*
X133646206Y-47321000D01*
X133646206Y-43199323D01*
X133466180Y-42763628D01*
X133133125Y-42429991D01*
X132697745Y-42249206D01*
X132226323Y-42248794D01*
X131825552Y-42414389D01*
X131427745Y-42249206D01*
X131123855Y-42248940D01*
X131190846Y-42087609D01*
X131190867Y-42062842D01*
X132051433Y-41202276D01*
X132201920Y-41140097D01*
X132452218Y-40890236D01*
X132587846Y-40563609D01*
X132588154Y-40209943D01*
X132453097Y-39883080D01*
X132203236Y-39632782D01*
X131876609Y-39497154D01*
X131522943Y-39496846D01*
X131196080Y-39631903D01*
X130945782Y-39881764D01*
X130810154Y-40208391D01*
X130810021Y-40360268D01*
X130149423Y-41020866D01*
X130125943Y-41020846D01*
X129799080Y-41155903D01*
X129548782Y-41405764D01*
X129413154Y-41732391D01*
X129412846Y-42086057D01*
X129510162Y-42321582D01*
X129387600Y-42372224D01*
X129387600Y-38227000D01*
X129331530Y-37945115D01*
X129171855Y-37706145D01*
X128524133Y-37058423D01*
X128524154Y-37034943D01*
X128389097Y-36708080D01*
X128139236Y-36457782D01*
X127812609Y-36322154D01*
X127458943Y-36321846D01*
X127132080Y-36456903D01*
X126881782Y-36706764D01*
X126746154Y-37033391D01*
X126745846Y-37387057D01*
X126880903Y-37713920D01*
X127130764Y-37964218D01*
X127457391Y-38099846D01*
X127482157Y-38099867D01*
X127914400Y-38532110D01*
X127914400Y-42494932D01*
X127646991Y-42761875D01*
X127466206Y-43197255D01*
X127465794Y-43668677D01*
X127532511Y-43830145D01*
X127464023Y-43830086D01*
X127137160Y-43965143D01*
X127119632Y-43982640D01*
X125958600Y-43982640D01*
X125676715Y-44038710D01*
X125437745Y-44198385D01*
X124955145Y-44680985D01*
X124795470Y-44919955D01*
X124749304Y-45152044D01*
X124471991Y-45428875D01*
X124291206Y-45864255D01*
X124290794Y-46335677D01*
X124470820Y-46771372D01*
X124803875Y-47105009D01*
X125239255Y-47285794D01*
X125710677Y-47286206D01*
X126111447Y-47120610D01*
X126509255Y-47285794D01*
X126980677Y-47286206D01*
X127416372Y-47106180D01*
X127750009Y-46773125D01*
X127930794Y-46337745D01*
X127931206Y-45866323D01*
X127823392Y-45605395D01*
X128143000Y-45473337D01*
X128393298Y-45223476D01*
X128528926Y-44896849D01*
X128529168Y-44618894D01*
X128885677Y-44619206D01*
X129286447Y-44453610D01*
X129684255Y-44618794D01*
X130155677Y-44619206D01*
X130556447Y-44453610D01*
X130954255Y-44618794D01*
X131425677Y-44619206D01*
X131826447Y-44453610D01*
X132224255Y-44618794D01*
X132695677Y-44619206D01*
X133131372Y-44439180D01*
X133465009Y-44106125D01*
X133645794Y-43670745D01*
X133646206Y-43199323D01*
X133646206Y-47321000D01*
X133138206Y-47321000D01*
X133138206Y-45866323D01*
X132958180Y-45430628D01*
X132625125Y-45096991D01*
X132189745Y-44916206D01*
X131718323Y-44915794D01*
X131317552Y-45081389D01*
X130919745Y-44916206D01*
X130448323Y-44915794D01*
X130012628Y-45095820D01*
X129678991Y-45428875D01*
X129498206Y-45864255D01*
X129497794Y-46335677D01*
X129677820Y-46771372D01*
X130010875Y-47105009D01*
X130446255Y-47285794D01*
X130917677Y-47286206D01*
X131318447Y-47120610D01*
X131716255Y-47285794D01*
X132187677Y-47286206D01*
X132623372Y-47106180D01*
X132957009Y-46773125D01*
X133137794Y-46337745D01*
X133138206Y-45866323D01*
X133138206Y-47321000D01*
X123994206Y-47321000D01*
X123994206Y-45866323D01*
X123814180Y-45430628D01*
X123481125Y-45096991D01*
X123045745Y-44916206D01*
X122574323Y-44915794D01*
X122138628Y-45095820D01*
X121804991Y-45428875D01*
X121624206Y-45864255D01*
X121623794Y-46335677D01*
X121803820Y-46771372D01*
X122136875Y-47105009D01*
X122572255Y-47285794D01*
X123043677Y-47286206D01*
X123479372Y-47106180D01*
X123813009Y-46773125D01*
X123993794Y-46337745D01*
X123994206Y-45866323D01*
X123994206Y-47321000D01*
X120827000Y-47321000D01*
X120827000Y-30276000D01*
X141809000Y-30276000D01*
X141809000Y-30455813D01*
X141460745Y-30311206D01*
X140989323Y-30310794D01*
X140553628Y-30490820D01*
X140219991Y-30823875D01*
X140039206Y-31259255D01*
X140038794Y-31730677D01*
X140218820Y-32166372D01*
X140551875Y-32500009D01*
X140987255Y-32680794D01*
X141458677Y-32681206D01*
X141809000Y-32536455D01*
X141809000Y-38710813D01*
X141460745Y-38566206D01*
X140989323Y-38565794D01*
X140843154Y-38626189D01*
X140843154Y-35891943D01*
X140708097Y-35565080D01*
X140458236Y-35314782D01*
X140131609Y-35179154D01*
X139869206Y-35178925D01*
X139869206Y-31261323D01*
X139689180Y-30825628D01*
X139356125Y-30491991D01*
X138920745Y-30311206D01*
X138449323Y-30310794D01*
X138048552Y-30476389D01*
X137650745Y-30311206D01*
X137179323Y-30310794D01*
X136743628Y-30490820D01*
X136409991Y-30823875D01*
X136229206Y-31259255D01*
X136228794Y-31730677D01*
X136408820Y-32166372D01*
X136741875Y-32500009D01*
X137177255Y-32680794D01*
X137648677Y-32681206D01*
X138049447Y-32515610D01*
X138447255Y-32680794D01*
X138918677Y-32681206D01*
X139354372Y-32501180D01*
X139688009Y-32168125D01*
X139868794Y-31732745D01*
X139869206Y-31261323D01*
X139869206Y-35178925D01*
X139777943Y-35178846D01*
X139451080Y-35313903D01*
X139200782Y-35563764D01*
X139065154Y-35890391D01*
X139064846Y-36244057D01*
X139192000Y-36551793D01*
X139192000Y-36830000D01*
X138303154Y-36830000D01*
X138303154Y-35637943D01*
X138168097Y-35311080D01*
X137918236Y-35060782D01*
X137591609Y-34925154D01*
X137237943Y-34924846D01*
X136930206Y-35052000D01*
X132944086Y-35052000D01*
X132638609Y-34925154D01*
X132284943Y-34924846D01*
X131958080Y-35059903D01*
X131707782Y-35309764D01*
X131572154Y-35636391D01*
X131571846Y-35990057D01*
X131706903Y-36316920D01*
X131956764Y-36567218D01*
X132283391Y-36702846D01*
X132637057Y-36703154D01*
X132944793Y-36576000D01*
X136930913Y-36576000D01*
X137236391Y-36702846D01*
X137590057Y-36703154D01*
X137916920Y-36568097D01*
X138167218Y-36318236D01*
X138302846Y-35991609D01*
X138303154Y-35637943D01*
X138303154Y-36830000D01*
X136583701Y-36830000D01*
X136292096Y-36888004D01*
X136067925Y-37037790D01*
X136067599Y-37037655D01*
X135713933Y-37037347D01*
X135387070Y-37172404D01*
X135136772Y-37422265D01*
X135001144Y-37748892D01*
X135000836Y-38102558D01*
X135135893Y-38429421D01*
X135385754Y-38679719D01*
X135712381Y-38815347D01*
X136066047Y-38815655D01*
X136392910Y-38680598D01*
X136418784Y-38654768D01*
X136540804Y-38630497D01*
X136540805Y-38630497D01*
X136788015Y-38465316D01*
X136899331Y-38354000D01*
X139573000Y-38354000D01*
X139573000Y-38353999D01*
X139864604Y-38295996D01*
X139864605Y-38295996D01*
X140111815Y-38130815D01*
X140492815Y-37749816D01*
X140492815Y-37749815D01*
X140657996Y-37502605D01*
X140715999Y-37211000D01*
X140716000Y-37211000D01*
X140716000Y-36551086D01*
X140842846Y-36245609D01*
X140843154Y-35891943D01*
X140843154Y-38626189D01*
X140588552Y-38731389D01*
X140190745Y-38566206D01*
X139719323Y-38565794D01*
X139318552Y-38731389D01*
X138920745Y-38566206D01*
X138449323Y-38565794D01*
X138048552Y-38731389D01*
X137650745Y-38566206D01*
X137179323Y-38565794D01*
X136743628Y-38745820D01*
X136409991Y-39078875D01*
X136229206Y-39514255D01*
X136228794Y-39985677D01*
X136394389Y-40386447D01*
X136229206Y-40784255D01*
X136228794Y-41255677D01*
X136394389Y-41656447D01*
X136229206Y-42054255D01*
X136228794Y-42525677D01*
X136394389Y-42926447D01*
X136229206Y-43324255D01*
X136228794Y-43795677D01*
X136394389Y-44196447D01*
X136229206Y-44594255D01*
X136228794Y-45065677D01*
X136394389Y-45466447D01*
X136229206Y-45864255D01*
X136228794Y-46335677D01*
X136408820Y-46771372D01*
X136741875Y-47105009D01*
X137177255Y-47285794D01*
X137648677Y-47286206D01*
X138049447Y-47120610D01*
X138447255Y-47285794D01*
X138918677Y-47286206D01*
X139319447Y-47120610D01*
X139717255Y-47285794D01*
X140188677Y-47286206D01*
X140589447Y-47120610D01*
X140987255Y-47285794D01*
X141458677Y-47286206D01*
X141809000Y-47141455D01*
X141809000Y-47321000D01*
X141809000Y-47321000D01*
G37*
X141809000Y-47321000D02*
X136186206Y-47321000D01*
X136186206Y-43199323D01*
X136006180Y-42763628D01*
X135673125Y-42429991D01*
X135237745Y-42249206D01*
X134766323Y-42248794D01*
X134330628Y-42428820D01*
X133996991Y-42761875D01*
X133816206Y-43197255D01*
X133815794Y-43668677D01*
X133995820Y-44104372D01*
X134328875Y-44438009D01*
X134764255Y-44618794D01*
X135235677Y-44619206D01*
X135671372Y-44439180D01*
X136005009Y-44106125D01*
X136185794Y-43670745D01*
X136186206Y-43199323D01*
X136186206Y-47321000D01*
X133646206Y-47321000D01*
X133646206Y-43199323D01*
X133466180Y-42763628D01*
X133133125Y-42429991D01*
X132697745Y-42249206D01*
X132226323Y-42248794D01*
X131825552Y-42414389D01*
X131427745Y-42249206D01*
X131123855Y-42248940D01*
X131190846Y-42087609D01*
X131190867Y-42062842D01*
X132051433Y-41202276D01*
X132201920Y-41140097D01*
X132452218Y-40890236D01*
X132587846Y-40563609D01*
X132588154Y-40209943D01*
X132453097Y-39883080D01*
X132203236Y-39632782D01*
X131876609Y-39497154D01*
X131522943Y-39496846D01*
X131196080Y-39631903D01*
X130945782Y-39881764D01*
X130810154Y-40208391D01*
X130810021Y-40360268D01*
X130149423Y-41020866D01*
X130125943Y-41020846D01*
X129799080Y-41155903D01*
X129548782Y-41405764D01*
X129413154Y-41732391D01*
X129412846Y-42086057D01*
X129510162Y-42321582D01*
X129387600Y-42372224D01*
X129387600Y-38227000D01*
X129331530Y-37945115D01*
X129171855Y-37706145D01*
X128524133Y-37058423D01*
X128524154Y-37034943D01*
X128389097Y-36708080D01*
X128139236Y-36457782D01*
X127812609Y-36322154D01*
X127458943Y-36321846D01*
X127132080Y-36456903D01*
X126881782Y-36706764D01*
X126746154Y-37033391D01*
X126745846Y-37387057D01*
X126880903Y-37713920D01*
X127130764Y-37964218D01*
X127457391Y-38099846D01*
X127482157Y-38099867D01*
X127914400Y-38532110D01*
X127914400Y-42494932D01*
X127646991Y-42761875D01*
X127466206Y-43197255D01*
X127465794Y-43668677D01*
X127532511Y-43830145D01*
X127464023Y-43830086D01*
X127137160Y-43965143D01*
X127119632Y-43982640D01*
X125958600Y-43982640D01*
X125676715Y-44038710D01*
X125437745Y-44198385D01*
X124955145Y-44680985D01*
X124795470Y-44919955D01*
X124749304Y-45152044D01*
X124471991Y-45428875D01*
X124291206Y-45864255D01*
X124290794Y-46335677D01*
X124470820Y-46771372D01*
X124803875Y-47105009D01*
X125239255Y-47285794D01*
X125710677Y-47286206D01*
X126111447Y-47120610D01*
X126509255Y-47285794D01*
X126980677Y-47286206D01*
X127416372Y-47106180D01*
X127750009Y-46773125D01*
X127930794Y-46337745D01*
X127931206Y-45866323D01*
X127823392Y-45605395D01*
X128143000Y-45473337D01*
X128393298Y-45223476D01*
X128528926Y-44896849D01*
X128529168Y-44618894D01*
X128885677Y-44619206D01*
X129286447Y-44453610D01*
X129684255Y-44618794D01*
X130155677Y-44619206D01*
X130556447Y-44453610D01*
X130954255Y-44618794D01*
X131425677Y-44619206D01*
X131826447Y-44453610D01*
X132224255Y-44618794D01*
X132695677Y-44619206D01*
X133131372Y-44439180D01*
X133465009Y-44106125D01*
X133645794Y-43670745D01*
X133646206Y-43199323D01*
X133646206Y-47321000D01*
X133138206Y-47321000D01*
X133138206Y-45866323D01*
X132958180Y-45430628D01*
X132625125Y-45096991D01*
X132189745Y-44916206D01*
X131718323Y-44915794D01*
X131317552Y-45081389D01*
X130919745Y-44916206D01*
X130448323Y-44915794D01*
X130012628Y-45095820D01*
X129678991Y-45428875D01*
X129498206Y-45864255D01*
X129497794Y-46335677D01*
X129677820Y-46771372D01*
X130010875Y-47105009D01*
X130446255Y-47285794D01*
X130917677Y-47286206D01*
X131318447Y-47120610D01*
X131716255Y-47285794D01*
X132187677Y-47286206D01*
X132623372Y-47106180D01*
X132957009Y-46773125D01*
X133137794Y-46337745D01*
X133138206Y-45866323D01*
X133138206Y-47321000D01*
X123994206Y-47321000D01*
X123994206Y-45866323D01*
X123814180Y-45430628D01*
X123481125Y-45096991D01*
X123045745Y-44916206D01*
X122574323Y-44915794D01*
X122138628Y-45095820D01*
X121804991Y-45428875D01*
X121624206Y-45864255D01*
X121623794Y-46335677D01*
X121803820Y-46771372D01*
X122136875Y-47105009D01*
X122572255Y-47285794D01*
X123043677Y-47286206D01*
X123479372Y-47106180D01*
X123813009Y-46773125D01*
X123993794Y-46337745D01*
X123994206Y-45866323D01*
X123994206Y-47321000D01*
X120827000Y-47321000D01*
X120827000Y-30276000D01*
X141809000Y-30276000D01*
X141809000Y-30455813D01*
X141460745Y-30311206D01*
X140989323Y-30310794D01*
X140553628Y-30490820D01*
X140219991Y-30823875D01*
X140039206Y-31259255D01*
X140038794Y-31730677D01*
X140218820Y-32166372D01*
X140551875Y-32500009D01*
X140987255Y-32680794D01*
X141458677Y-32681206D01*
X141809000Y-32536455D01*
X141809000Y-38710813D01*
X141460745Y-38566206D01*
X140989323Y-38565794D01*
X140843154Y-38626189D01*
X140843154Y-35891943D01*
X140708097Y-35565080D01*
X140458236Y-35314782D01*
X140131609Y-35179154D01*
X139869206Y-35178925D01*
X139869206Y-31261323D01*
X139689180Y-30825628D01*
X139356125Y-30491991D01*
X138920745Y-30311206D01*
X138449323Y-30310794D01*
X138048552Y-30476389D01*
X137650745Y-30311206D01*
X137179323Y-30310794D01*
X136743628Y-30490820D01*
X136409991Y-30823875D01*
X136229206Y-31259255D01*
X136228794Y-31730677D01*
X136408820Y-32166372D01*
X136741875Y-32500009D01*
X137177255Y-32680794D01*
X137648677Y-32681206D01*
X138049447Y-32515610D01*
X138447255Y-32680794D01*
X138918677Y-32681206D01*
X139354372Y-32501180D01*
X139688009Y-32168125D01*
X139868794Y-31732745D01*
X139869206Y-31261323D01*
X139869206Y-35178925D01*
X139777943Y-35178846D01*
X139451080Y-35313903D01*
X139200782Y-35563764D01*
X139065154Y-35890391D01*
X139064846Y-36244057D01*
X139192000Y-36551793D01*
X139192000Y-36830000D01*
X138303154Y-36830000D01*
X138303154Y-35637943D01*
X138168097Y-35311080D01*
X137918236Y-35060782D01*
X137591609Y-34925154D01*
X137237943Y-34924846D01*
X136930206Y-35052000D01*
X132944086Y-35052000D01*
X132638609Y-34925154D01*
X132284943Y-34924846D01*
X131958080Y-35059903D01*
X131707782Y-35309764D01*
X131572154Y-35636391D01*
X131571846Y-35990057D01*
X131706903Y-36316920D01*
X131956764Y-36567218D01*
X132283391Y-36702846D01*
X132637057Y-36703154D01*
X132944793Y-36576000D01*
X136930913Y-36576000D01*
X137236391Y-36702846D01*
X137590057Y-36703154D01*
X137916920Y-36568097D01*
X138167218Y-36318236D01*
X138302846Y-35991609D01*
X138303154Y-35637943D01*
X138303154Y-36830000D01*
X136583701Y-36830000D01*
X136292096Y-36888004D01*
X136067925Y-37037790D01*
X136067599Y-37037655D01*
X135713933Y-37037347D01*
X135387070Y-37172404D01*
X135136772Y-37422265D01*
X135001144Y-37748892D01*
X135000836Y-38102558D01*
X135135893Y-38429421D01*
X135385754Y-38679719D01*
X135712381Y-38815347D01*
X136066047Y-38815655D01*
X136392910Y-38680598D01*
X136418784Y-38654768D01*
X136540804Y-38630497D01*
X136540805Y-38630497D01*
X136788015Y-38465316D01*
X136899331Y-38354000D01*
X139573000Y-38354000D01*
X139573000Y-38353999D01*
X139864604Y-38295996D01*
X139864605Y-38295996D01*
X140111815Y-38130815D01*
X140492815Y-37749816D01*
X140492815Y-37749815D01*
X140657996Y-37502605D01*
X140715999Y-37211000D01*
X140716000Y-37211000D01*
X140716000Y-36551086D01*
X140842846Y-36245609D01*
X140843154Y-35891943D01*
X140843154Y-38626189D01*
X140588552Y-38731389D01*
X140190745Y-38566206D01*
X139719323Y-38565794D01*
X139318552Y-38731389D01*
X138920745Y-38566206D01*
X138449323Y-38565794D01*
X138048552Y-38731389D01*
X137650745Y-38566206D01*
X137179323Y-38565794D01*
X136743628Y-38745820D01*
X136409991Y-39078875D01*
X136229206Y-39514255D01*
X136228794Y-39985677D01*
X136394389Y-40386447D01*
X136229206Y-40784255D01*
X136228794Y-41255677D01*
X136394389Y-41656447D01*
X136229206Y-42054255D01*
X136228794Y-42525677D01*
X136394389Y-42926447D01*
X136229206Y-43324255D01*
X136228794Y-43795677D01*
X136394389Y-44196447D01*
X136229206Y-44594255D01*
X136228794Y-45065677D01*
X136394389Y-45466447D01*
X136229206Y-45864255D01*
X136228794Y-46335677D01*
X136408820Y-46771372D01*
X136741875Y-47105009D01*
X137177255Y-47285794D01*
X137648677Y-47286206D01*
X138049447Y-47120610D01*
X138447255Y-47285794D01*
X138918677Y-47286206D01*
X139319447Y-47120610D01*
X139717255Y-47285794D01*
X140188677Y-47286206D01*
X140589447Y-47120610D01*
X140987255Y-47285794D01*
X141458677Y-47286206D01*
X141809000Y-47141455D01*
X141809000Y-47321000D01*
M02*
