G04 #@! TF.FileFunction,Copper,L2,Bot,Signal*
%FSLAX46Y46*%
G04 Gerber Fmt 4.6, Leading zero omitted, Abs format (unit mm)*
G04 Created by KiCad (PCBNEW (2014-12-04 BZR 5312)-product) date 4/25/2015 1:25:45 PM*
%MOMM*%
G01*
G04 APERTURE LIST*
%ADD10C,0.100000*%
%ADD11C,1.100000*%
%ADD12R,1.727200X2.032000*%
%ADD13O,1.727200X2.032000*%
%ADD14C,0.609600*%
%ADD15C,0.508000*%
%ADD16C,0.304800*%
%ADD17C,0.203200*%
G04 APERTURE END LIST*
D10*
D11*
X134747000Y-46101000D03*
X133477000Y-46101000D03*
X121412000Y-44704000D03*
X121412000Y-43434000D03*
X128651000Y-43434000D03*
X135001000Y-43434000D03*
X133731000Y-43434000D03*
X132461000Y-43434000D03*
X131191000Y-43434000D03*
X129921000Y-43434000D03*
X134747000Y-48895000D03*
X133477000Y-48895000D03*
X121412000Y-48641000D03*
X121412000Y-47371000D03*
X141224000Y-42164000D03*
X139954000Y-42164000D03*
X138684000Y-42164000D03*
X137414000Y-42164000D03*
X137414000Y-44704000D03*
X137414000Y-47244000D03*
X137414000Y-49784000D03*
X138684000Y-44704000D03*
X138684000Y-47244000D03*
X138684000Y-49784000D03*
X139954000Y-44704000D03*
X139954000Y-47244000D03*
X139954000Y-49784000D03*
X141224000Y-44704000D03*
X141224000Y-47244000D03*
X141224000Y-49784000D03*
D12*
X130175000Y-48641000D03*
D13*
X127635000Y-48641000D03*
X125095000Y-48641000D03*
D11*
X138049000Y-34798000D03*
X139319000Y-34798000D03*
X140589000Y-34798000D03*
X138049000Y-32131000D03*
X139319000Y-32131000D03*
X140589000Y-32131000D03*
D14*
X133858000Y-31496000D03*
X127381000Y-30353000D03*
X121666000Y-35560000D03*
D15*
X130302000Y-41910000D03*
X131699000Y-40386000D03*
X124333000Y-41148000D03*
X128651000Y-44831000D03*
X136144000Y-40894000D03*
X138049000Y-37846000D03*
X135890000Y-38608000D03*
X132969000Y-38481000D03*
X127635000Y-37211000D03*
X127762000Y-45491410D03*
D16*
X134366000Y-44831000D02*
X134747000Y-45212000D01*
X134747000Y-45212000D02*
X134747000Y-46101000D01*
X131810183Y-44831000D02*
X134366000Y-44831000D01*
X131191000Y-43434000D02*
X131191000Y-44211817D01*
X131191000Y-44211817D02*
X131810183Y-44831000D01*
X129921000Y-43434000D02*
X129921000Y-44211817D01*
X129921000Y-44211817D02*
X131810183Y-46101000D01*
X131810183Y-46101000D02*
X132699183Y-46101000D01*
X132699183Y-46101000D02*
X133477000Y-46101000D01*
D17*
X130302000Y-41910000D02*
X131699000Y-40513000D01*
X131699000Y-40513000D02*
X131699000Y-40386000D01*
D16*
X128651000Y-44831000D02*
X125222000Y-44831000D01*
X125222000Y-44831000D02*
X124333000Y-43942000D01*
X124333000Y-43942000D02*
X124333000Y-41148000D01*
D17*
X138049000Y-39878000D02*
X137033000Y-40894000D01*
X137033000Y-40894000D02*
X136144000Y-40894000D01*
X138049000Y-39497000D02*
X138049000Y-39878000D01*
X138049000Y-37846000D02*
X138049000Y-39497000D01*
X135763000Y-38481000D02*
X135890000Y-38608000D01*
X132969000Y-38481000D02*
X135763000Y-38481000D01*
X128651000Y-38227000D02*
X128651000Y-43434000D01*
X127635000Y-37211000D02*
X128651000Y-38227000D01*
X127762000Y-45491410D02*
X125958590Y-45491410D01*
X125958590Y-45491410D02*
X125095000Y-46355000D01*
X125095000Y-46355000D02*
X125095000Y-48641000D01*
G36*
X141884400Y-49163722D02*
X141737651Y-49016717D01*
X141404925Y-48878557D01*
X141044655Y-48878243D01*
X140711689Y-49015822D01*
X140589009Y-49138287D01*
X140467651Y-49016717D01*
X140134925Y-48878557D01*
X139774655Y-48878243D01*
X139441689Y-49015822D01*
X139319009Y-49138287D01*
X139197651Y-49016717D01*
X138864925Y-48878557D01*
X138504655Y-48878243D01*
X138171689Y-49015822D01*
X138049009Y-49138287D01*
X137927651Y-49016717D01*
X137594925Y-48878557D01*
X137234655Y-48878243D01*
X136901689Y-49015822D01*
X136646717Y-49270349D01*
X136508557Y-49603075D01*
X136508243Y-49963345D01*
X136602060Y-50190400D01*
X135906757Y-50190400D01*
X135906757Y-43254655D01*
X135769178Y-42921689D01*
X135514651Y-42666717D01*
X135181925Y-42528557D01*
X134821655Y-42528243D01*
X134488689Y-42665822D01*
X134343482Y-42810775D01*
X134343482Y-42605992D01*
X134296858Y-42395885D01*
X133856515Y-42258362D01*
X133397064Y-42299820D01*
X133165142Y-42395885D01*
X133118518Y-42605992D01*
X133731000Y-43218474D01*
X134343482Y-42605992D01*
X134343482Y-42810775D01*
X134233717Y-42920349D01*
X134095557Y-43253075D01*
X134095529Y-43284996D01*
X133946526Y-43434000D01*
X134095269Y-43582743D01*
X134095243Y-43613345D01*
X134232822Y-43946311D01*
X134487349Y-44201283D01*
X134820075Y-44339443D01*
X135180345Y-44339757D01*
X135513311Y-44202178D01*
X135768283Y-43947651D01*
X135906443Y-43614925D01*
X135906757Y-43254655D01*
X135906757Y-50190400D01*
X135652757Y-50190400D01*
X135652757Y-48715655D01*
X135652757Y-45921655D01*
X135515178Y-45588689D01*
X135260651Y-45333717D01*
X135255000Y-45331370D01*
X135255000Y-45212000D01*
X135222746Y-45049849D01*
X135216331Y-45017597D01*
X135216331Y-45017596D01*
X135106210Y-44852790D01*
X135106210Y-44852789D01*
X134725210Y-44471790D01*
X134560403Y-44361669D01*
X134366000Y-44323000D01*
X134329947Y-44323000D01*
X134343482Y-44262008D01*
X133731000Y-43649526D01*
X133118518Y-44262008D01*
X133132052Y-44323000D01*
X132680899Y-44323000D01*
X132973311Y-44202178D01*
X133228283Y-43947651D01*
X133366443Y-43614925D01*
X133366470Y-43583003D01*
X133515474Y-43434000D01*
X133366730Y-43285256D01*
X133366757Y-43254655D01*
X133229178Y-42921689D01*
X132974651Y-42666717D01*
X132641925Y-42528557D01*
X132308706Y-42528266D01*
X132308706Y-40265275D01*
X132216095Y-40041140D01*
X132044762Y-39869507D01*
X131820789Y-39776506D01*
X131578275Y-39776294D01*
X131354140Y-39868905D01*
X131182507Y-40040238D01*
X131089506Y-40264211D01*
X131089320Y-40476101D01*
X130265054Y-41300367D01*
X130181275Y-41300294D01*
X129957140Y-41392905D01*
X129785507Y-41564238D01*
X129692506Y-41788211D01*
X129692294Y-42030725D01*
X129784905Y-42254860D01*
X129956238Y-42426493D01*
X130180211Y-42519494D01*
X130422725Y-42519706D01*
X130646860Y-42427095D01*
X130818493Y-42255762D01*
X130911494Y-42031789D01*
X130911568Y-41947009D01*
X131893253Y-40965324D01*
X132043860Y-40903095D01*
X132215493Y-40731762D01*
X132308494Y-40507789D01*
X132308706Y-40265275D01*
X132308706Y-42528266D01*
X132281655Y-42528243D01*
X131948689Y-42665822D01*
X131826009Y-42788287D01*
X131704651Y-42666717D01*
X131371925Y-42528557D01*
X131011655Y-42528243D01*
X130678689Y-42665822D01*
X130556009Y-42788287D01*
X130434651Y-42666717D01*
X130101925Y-42528557D01*
X129741655Y-42528243D01*
X129408689Y-42665822D01*
X129286009Y-42788287D01*
X129164651Y-42666717D01*
X129108200Y-42643276D01*
X129108200Y-38227000D01*
X129073398Y-38052037D01*
X128974289Y-37903711D01*
X128244632Y-37174054D01*
X128244706Y-37090275D01*
X128152095Y-36866140D01*
X127980762Y-36694507D01*
X127756789Y-36601506D01*
X127514275Y-36601294D01*
X127290140Y-36693905D01*
X127118507Y-36865238D01*
X127025506Y-37089211D01*
X127025294Y-37331725D01*
X127117905Y-37555860D01*
X127289238Y-37727493D01*
X127513211Y-37820494D01*
X127597990Y-37820568D01*
X128193800Y-38416378D01*
X128193800Y-42643050D01*
X128138689Y-42665822D01*
X127883717Y-42920349D01*
X127745557Y-43253075D01*
X127745243Y-43613345D01*
X127882822Y-43946311D01*
X128137349Y-44201283D01*
X128357482Y-44292690D01*
X128306140Y-44313905D01*
X128297029Y-44323000D01*
X125432420Y-44323000D01*
X124841000Y-43731580D01*
X124841000Y-41502240D01*
X124849493Y-41493762D01*
X124942494Y-41269789D01*
X124942706Y-41027275D01*
X124850095Y-40803140D01*
X124678762Y-40631507D01*
X124454789Y-40538506D01*
X124212275Y-40538294D01*
X123988140Y-40630905D01*
X123816507Y-40802238D01*
X123723506Y-41026211D01*
X123723294Y-41268725D01*
X123815905Y-41492860D01*
X123825000Y-41501970D01*
X123825000Y-43942000D01*
X123863669Y-44136403D01*
X123973790Y-44301210D01*
X124862790Y-45190210D01*
X125027597Y-45300331D01*
X125222000Y-45339000D01*
X125464421Y-45339000D01*
X124771711Y-46031711D01*
X124672602Y-46180037D01*
X124637800Y-46355000D01*
X124637800Y-47333471D01*
X124628432Y-47335335D01*
X124232895Y-47599624D01*
X123968606Y-47995161D01*
X123875800Y-48461729D01*
X123875800Y-48820271D01*
X123968606Y-49286839D01*
X124232895Y-49682376D01*
X124628432Y-49946665D01*
X125095000Y-50039471D01*
X125561568Y-49946665D01*
X125957105Y-49682376D01*
X126221394Y-49286839D01*
X126314200Y-48820271D01*
X126314200Y-48461729D01*
X126221394Y-47995161D01*
X125957105Y-47599624D01*
X125561568Y-47335335D01*
X125552200Y-47333471D01*
X125552200Y-46544378D01*
X126147968Y-45948610D01*
X127357048Y-45948610D01*
X127416238Y-46007903D01*
X127640211Y-46100904D01*
X127882725Y-46101116D01*
X128106860Y-46008505D01*
X128278493Y-45837172D01*
X128371494Y-45613199D01*
X128371702Y-45375091D01*
X128529211Y-45440494D01*
X128771725Y-45440706D01*
X128995860Y-45348095D01*
X129167493Y-45176762D01*
X129260494Y-44952789D01*
X129260706Y-44710275D01*
X129168095Y-44486140D01*
X128996762Y-44314507D01*
X128944237Y-44292697D01*
X129163311Y-44202178D01*
X129285990Y-44079712D01*
X129407349Y-44201283D01*
X129413000Y-44203629D01*
X129413000Y-44211817D01*
X129451669Y-44406220D01*
X129561790Y-44571027D01*
X131450973Y-46460210D01*
X131615779Y-46570331D01*
X131615780Y-46570331D01*
X131648032Y-46576746D01*
X131810183Y-46609000D01*
X132699183Y-46609000D01*
X132707040Y-46609000D01*
X132708822Y-46613311D01*
X132963349Y-46868283D01*
X133296075Y-47006443D01*
X133656345Y-47006757D01*
X133989311Y-46869178D01*
X134111990Y-46746712D01*
X134233349Y-46868283D01*
X134566075Y-47006443D01*
X134926345Y-47006757D01*
X135259311Y-46869178D01*
X135514283Y-46614651D01*
X135652443Y-46281925D01*
X135652757Y-45921655D01*
X135652757Y-48715655D01*
X135515178Y-48382689D01*
X135260651Y-48127717D01*
X134927925Y-47989557D01*
X134567655Y-47989243D01*
X134234689Y-48126822D01*
X134112009Y-48249287D01*
X133990651Y-48127717D01*
X133657925Y-47989557D01*
X133297655Y-47989243D01*
X132964689Y-48126822D01*
X132709717Y-48381349D01*
X132571557Y-48714075D01*
X132571243Y-49074345D01*
X132708822Y-49407311D01*
X132963349Y-49662283D01*
X133296075Y-49800443D01*
X133656345Y-49800757D01*
X133989311Y-49663178D01*
X134111990Y-49540712D01*
X134233349Y-49662283D01*
X134566075Y-49800443D01*
X134926345Y-49800757D01*
X135259311Y-49663178D01*
X135514283Y-49408651D01*
X135652443Y-49075925D01*
X135652757Y-48715655D01*
X135652757Y-50190400D01*
X131343820Y-50190400D01*
X131383911Y-50173794D01*
X131555394Y-50002311D01*
X131648200Y-49778257D01*
X131648200Y-49535743D01*
X131648200Y-48945800D01*
X131648200Y-48336200D01*
X131648200Y-47746257D01*
X131648200Y-47503743D01*
X131555394Y-47279689D01*
X131383911Y-47108206D01*
X131159857Y-47015400D01*
X130479800Y-47015400D01*
X130327400Y-47167800D01*
X130327400Y-48488600D01*
X131495800Y-48488600D01*
X131648200Y-48336200D01*
X131648200Y-48945800D01*
X131495800Y-48793400D01*
X130327400Y-48793400D01*
X130327400Y-48813400D01*
X130022600Y-48813400D01*
X130022600Y-48793400D01*
X130002600Y-48793400D01*
X130002600Y-48488600D01*
X130022600Y-48488600D01*
X130022600Y-47167800D01*
X129870200Y-47015400D01*
X129190143Y-47015400D01*
X128966089Y-47108206D01*
X128794606Y-47279689D01*
X128701800Y-47503743D01*
X128701800Y-47746257D01*
X128701800Y-47905972D01*
X128497105Y-47599624D01*
X128101568Y-47335335D01*
X127635000Y-47242529D01*
X127168432Y-47335335D01*
X126772895Y-47599624D01*
X126508606Y-47995161D01*
X126415800Y-48461729D01*
X126415800Y-48820271D01*
X126508606Y-49286839D01*
X126772895Y-49682376D01*
X127168432Y-49946665D01*
X127635000Y-50039471D01*
X128101568Y-49946665D01*
X128497105Y-49682376D01*
X128701800Y-49376027D01*
X128701800Y-49535743D01*
X128701800Y-49778257D01*
X128794606Y-50002311D01*
X128966089Y-50173794D01*
X129006179Y-50190400D01*
X122587638Y-50190400D01*
X122587638Y-47496515D01*
X122587638Y-43559515D01*
X122546180Y-43100064D01*
X122450115Y-42868142D01*
X122240008Y-42821518D01*
X122024482Y-43037044D01*
X121627526Y-43434000D01*
X122240008Y-44046482D01*
X122450115Y-43999858D01*
X122587638Y-43559515D01*
X122587638Y-47496515D01*
X122546180Y-47037064D01*
X122450115Y-46805142D01*
X122240008Y-46758518D01*
X122024482Y-46974044D01*
X121627526Y-47371000D01*
X122240008Y-47983482D01*
X122450115Y-47936858D01*
X122587638Y-47496515D01*
X122587638Y-50190400D01*
X120751600Y-50190400D01*
X120751600Y-49261277D01*
X120898349Y-49408283D01*
X121231075Y-49546443D01*
X121591345Y-49546757D01*
X121924311Y-49409178D01*
X122179283Y-49154651D01*
X122317443Y-48821925D01*
X122317757Y-48461655D01*
X122180178Y-48128689D01*
X121925651Y-47873717D01*
X121592925Y-47735557D01*
X121561003Y-47735529D01*
X121412000Y-47586526D01*
X121397857Y-47600668D01*
X121182331Y-47385142D01*
X121196474Y-47371000D01*
X121182331Y-47356857D01*
X121397857Y-47141331D01*
X121412000Y-47155474D01*
X122024482Y-46542992D01*
X121977858Y-46332885D01*
X121537515Y-46195362D01*
X121078064Y-46236820D01*
X120846142Y-46332885D01*
X120799518Y-46542989D01*
X120751600Y-46495071D01*
X120751600Y-45324277D01*
X120898349Y-45471283D01*
X121231075Y-45609443D01*
X121591345Y-45609757D01*
X121924311Y-45472178D01*
X122179283Y-45217651D01*
X122317443Y-44884925D01*
X122317757Y-44524655D01*
X122180178Y-44191689D01*
X121925651Y-43936717D01*
X121592925Y-43798557D01*
X121561003Y-43798529D01*
X121412000Y-43649526D01*
X121397857Y-43663668D01*
X121182331Y-43448142D01*
X121196474Y-43434000D01*
X121182331Y-43419857D01*
X121397857Y-43204331D01*
X121412000Y-43218474D01*
X122024482Y-42605992D01*
X121977858Y-42395885D01*
X121537515Y-42258362D01*
X121078064Y-42299820D01*
X120846142Y-42395885D01*
X120799518Y-42605989D01*
X120751600Y-42558071D01*
X120751600Y-30073600D01*
X125222000Y-30073600D01*
X141884400Y-30073600D01*
X141884400Y-41543722D01*
X141737651Y-41396717D01*
X141494757Y-41295858D01*
X141494757Y-34618655D01*
X141494757Y-31951655D01*
X141357178Y-31618689D01*
X141102651Y-31363717D01*
X140769925Y-31225557D01*
X140409655Y-31225243D01*
X140076689Y-31362822D01*
X139931482Y-31507775D01*
X139931482Y-31302992D01*
X139884858Y-31092885D01*
X139444515Y-30955362D01*
X138985064Y-30996820D01*
X138753142Y-31092885D01*
X138706518Y-31302992D01*
X139319000Y-31915474D01*
X139931482Y-31302992D01*
X139931482Y-31507775D01*
X139821717Y-31617349D01*
X139683557Y-31950075D01*
X139683529Y-31981996D01*
X139534526Y-32131000D01*
X139683269Y-32279743D01*
X139683243Y-32310345D01*
X139820822Y-32643311D01*
X140075349Y-32898283D01*
X140408075Y-33036443D01*
X140768345Y-33036757D01*
X141101311Y-32899178D01*
X141356283Y-32644651D01*
X141494443Y-32311925D01*
X141494757Y-31951655D01*
X141494757Y-34618655D01*
X141357178Y-34285689D01*
X141102651Y-34030717D01*
X140769925Y-33892557D01*
X140409655Y-33892243D01*
X140076689Y-34029822D01*
X139931482Y-34174775D01*
X139931482Y-33969992D01*
X139931482Y-32959008D01*
X139319000Y-32346526D01*
X139103474Y-32562052D01*
X139103474Y-32131000D01*
X138954730Y-31982256D01*
X138954757Y-31951655D01*
X138817178Y-31618689D01*
X138562651Y-31363717D01*
X138229925Y-31225557D01*
X137869655Y-31225243D01*
X137536689Y-31362822D01*
X137281717Y-31617349D01*
X137143557Y-31950075D01*
X137143243Y-32310345D01*
X137280822Y-32643311D01*
X137535349Y-32898283D01*
X137868075Y-33036443D01*
X138228345Y-33036757D01*
X138561311Y-32899178D01*
X138816283Y-32644651D01*
X138954443Y-32311925D01*
X138954470Y-32280003D01*
X139103474Y-32131000D01*
X139103474Y-32562052D01*
X138706518Y-32959008D01*
X138753142Y-33169115D01*
X139193485Y-33306638D01*
X139652936Y-33265180D01*
X139884858Y-33169115D01*
X139931482Y-32959008D01*
X139931482Y-33969992D01*
X139884858Y-33759885D01*
X139444515Y-33622362D01*
X138985064Y-33663820D01*
X138753142Y-33759885D01*
X138706518Y-33969992D01*
X139319000Y-34582474D01*
X139931482Y-33969992D01*
X139931482Y-34174775D01*
X139821717Y-34284349D01*
X139683557Y-34617075D01*
X139683529Y-34648996D01*
X139534526Y-34798000D01*
X139683269Y-34946743D01*
X139683243Y-34977345D01*
X139820822Y-35310311D01*
X140075349Y-35565283D01*
X140408075Y-35703443D01*
X140768345Y-35703757D01*
X141101311Y-35566178D01*
X141356283Y-35311651D01*
X141494443Y-34978925D01*
X141494757Y-34618655D01*
X141494757Y-41295858D01*
X141404925Y-41258557D01*
X141044655Y-41258243D01*
X140711689Y-41395822D01*
X140589009Y-41518287D01*
X140467651Y-41396717D01*
X140134925Y-41258557D01*
X139931482Y-41258379D01*
X139931482Y-35626008D01*
X139319000Y-35013526D01*
X139103474Y-35229052D01*
X139103474Y-34798000D01*
X138954730Y-34649256D01*
X138954757Y-34618655D01*
X138817178Y-34285689D01*
X138562651Y-34030717D01*
X138229925Y-33892557D01*
X137869655Y-33892243D01*
X137536689Y-34029822D01*
X137281717Y-34284349D01*
X137143557Y-34617075D01*
X137143243Y-34977345D01*
X137280822Y-35310311D01*
X137535349Y-35565283D01*
X137868075Y-35703443D01*
X138228345Y-35703757D01*
X138561311Y-35566178D01*
X138816283Y-35311651D01*
X138954443Y-34978925D01*
X138954470Y-34947003D01*
X139103474Y-34798000D01*
X139103474Y-35229052D01*
X138706518Y-35626008D01*
X138753142Y-35836115D01*
X139193485Y-35973638D01*
X139652936Y-35932180D01*
X139884858Y-35836115D01*
X139931482Y-35626008D01*
X139931482Y-41258379D01*
X139774655Y-41258243D01*
X139441689Y-41395822D01*
X139319009Y-41518287D01*
X139197651Y-41396717D01*
X138864925Y-41258557D01*
X138504655Y-41258243D01*
X138171689Y-41395822D01*
X138049009Y-41518287D01*
X137927651Y-41396717D01*
X137594925Y-41258557D01*
X137294918Y-41258295D01*
X137356289Y-41217289D01*
X138372289Y-40201289D01*
X138471398Y-40052963D01*
X138506200Y-39878000D01*
X138506200Y-39497000D01*
X138506200Y-38250951D01*
X138565493Y-38191762D01*
X138658494Y-37967789D01*
X138658706Y-37725275D01*
X138566095Y-37501140D01*
X138394762Y-37329507D01*
X138170789Y-37236506D01*
X137928275Y-37236294D01*
X137704140Y-37328905D01*
X137532507Y-37500238D01*
X137439506Y-37724211D01*
X137439294Y-37966725D01*
X137531905Y-38190860D01*
X137591800Y-38250859D01*
X137591800Y-39497000D01*
X137591800Y-39688622D01*
X136843622Y-40436800D01*
X136548951Y-40436800D01*
X136499706Y-40387468D01*
X136499706Y-38487275D01*
X136407095Y-38263140D01*
X136235762Y-38091507D01*
X136011789Y-37998506D01*
X135769275Y-37998294D01*
X135707545Y-38023800D01*
X133373951Y-38023800D01*
X133314762Y-37964507D01*
X133090789Y-37871506D01*
X132848275Y-37871294D01*
X132624140Y-37963905D01*
X132452507Y-38135238D01*
X132359506Y-38359211D01*
X132359294Y-38601725D01*
X132451905Y-38825860D01*
X132623238Y-38997493D01*
X132847211Y-39090494D01*
X133089725Y-39090706D01*
X133313860Y-38998095D01*
X133373859Y-38938200D01*
X135366847Y-38938200D01*
X135372905Y-38952860D01*
X135544238Y-39124493D01*
X135768211Y-39217494D01*
X136010725Y-39217706D01*
X136234860Y-39125095D01*
X136406493Y-38953762D01*
X136499494Y-38729789D01*
X136499706Y-38487275D01*
X136499706Y-40387468D01*
X136489762Y-40377507D01*
X136265789Y-40284506D01*
X136023275Y-40284294D01*
X135799140Y-40376905D01*
X135627507Y-40548238D01*
X135534506Y-40772211D01*
X135534294Y-41014725D01*
X135626905Y-41238860D01*
X135798238Y-41410493D01*
X136022211Y-41503494D01*
X136264725Y-41503706D01*
X136488860Y-41411095D01*
X136548859Y-41351200D01*
X137009682Y-41351200D01*
X136901689Y-41395822D01*
X136646717Y-41650349D01*
X136508557Y-41983075D01*
X136508243Y-42343345D01*
X136645822Y-42676311D01*
X136900349Y-42931283D01*
X137233075Y-43069443D01*
X137593345Y-43069757D01*
X137926311Y-42932178D01*
X138048990Y-42809712D01*
X138170349Y-42931283D01*
X138503075Y-43069443D01*
X138863345Y-43069757D01*
X139196311Y-42932178D01*
X139318990Y-42809712D01*
X139440349Y-42931283D01*
X139773075Y-43069443D01*
X140133345Y-43069757D01*
X140466311Y-42932178D01*
X140588990Y-42809712D01*
X140710349Y-42931283D01*
X141043075Y-43069443D01*
X141403345Y-43069757D01*
X141736311Y-42932178D01*
X141884400Y-42784347D01*
X141884400Y-44083722D01*
X141737651Y-43936717D01*
X141404925Y-43798557D01*
X141044655Y-43798243D01*
X140711689Y-43935822D01*
X140589009Y-44058287D01*
X140467651Y-43936717D01*
X140134925Y-43798557D01*
X139774655Y-43798243D01*
X139441689Y-43935822D01*
X139319009Y-44058287D01*
X139197651Y-43936717D01*
X138864925Y-43798557D01*
X138504655Y-43798243D01*
X138171689Y-43935822D01*
X138049009Y-44058287D01*
X137927651Y-43936717D01*
X137594925Y-43798557D01*
X137234655Y-43798243D01*
X136901689Y-43935822D01*
X136646717Y-44190349D01*
X136508557Y-44523075D01*
X136508243Y-44883345D01*
X136645822Y-45216311D01*
X136900349Y-45471283D01*
X137233075Y-45609443D01*
X137593345Y-45609757D01*
X137926311Y-45472178D01*
X138048990Y-45349712D01*
X138170349Y-45471283D01*
X138503075Y-45609443D01*
X138863345Y-45609757D01*
X139196311Y-45472178D01*
X139318990Y-45349712D01*
X139440349Y-45471283D01*
X139773075Y-45609443D01*
X140133345Y-45609757D01*
X140466311Y-45472178D01*
X140588990Y-45349712D01*
X140710349Y-45471283D01*
X141043075Y-45609443D01*
X141403345Y-45609757D01*
X141736311Y-45472178D01*
X141884400Y-45324347D01*
X141884400Y-46623722D01*
X141737651Y-46476717D01*
X141404925Y-46338557D01*
X141044655Y-46338243D01*
X140711689Y-46475822D01*
X140589009Y-46598287D01*
X140467651Y-46476717D01*
X140134925Y-46338557D01*
X139774655Y-46338243D01*
X139441689Y-46475822D01*
X139319009Y-46598287D01*
X139197651Y-46476717D01*
X138864925Y-46338557D01*
X138504655Y-46338243D01*
X138171689Y-46475822D01*
X138049009Y-46598287D01*
X137927651Y-46476717D01*
X137594925Y-46338557D01*
X137234655Y-46338243D01*
X136901689Y-46475822D01*
X136646717Y-46730349D01*
X136508557Y-47063075D01*
X136508243Y-47423345D01*
X136645822Y-47756311D01*
X136900349Y-48011283D01*
X137233075Y-48149443D01*
X137593345Y-48149757D01*
X137926311Y-48012178D01*
X138048990Y-47889712D01*
X138170349Y-48011283D01*
X138503075Y-48149443D01*
X138863345Y-48149757D01*
X139196311Y-48012178D01*
X139318990Y-47889712D01*
X139440349Y-48011283D01*
X139773075Y-48149443D01*
X140133345Y-48149757D01*
X140466311Y-48012178D01*
X140588990Y-47889712D01*
X140710349Y-48011283D01*
X141043075Y-48149443D01*
X141403345Y-48149757D01*
X141736311Y-48012178D01*
X141884400Y-47864347D01*
X141884400Y-49163722D01*
X141884400Y-49163722D01*
G37*
X141884400Y-49163722D02*
X141737651Y-49016717D01*
X141404925Y-48878557D01*
X141044655Y-48878243D01*
X140711689Y-49015822D01*
X140589009Y-49138287D01*
X140467651Y-49016717D01*
X140134925Y-48878557D01*
X139774655Y-48878243D01*
X139441689Y-49015822D01*
X139319009Y-49138287D01*
X139197651Y-49016717D01*
X138864925Y-48878557D01*
X138504655Y-48878243D01*
X138171689Y-49015822D01*
X138049009Y-49138287D01*
X137927651Y-49016717D01*
X137594925Y-48878557D01*
X137234655Y-48878243D01*
X136901689Y-49015822D01*
X136646717Y-49270349D01*
X136508557Y-49603075D01*
X136508243Y-49963345D01*
X136602060Y-50190400D01*
X135906757Y-50190400D01*
X135906757Y-43254655D01*
X135769178Y-42921689D01*
X135514651Y-42666717D01*
X135181925Y-42528557D01*
X134821655Y-42528243D01*
X134488689Y-42665822D01*
X134343482Y-42810775D01*
X134343482Y-42605992D01*
X134296858Y-42395885D01*
X133856515Y-42258362D01*
X133397064Y-42299820D01*
X133165142Y-42395885D01*
X133118518Y-42605992D01*
X133731000Y-43218474D01*
X134343482Y-42605992D01*
X134343482Y-42810775D01*
X134233717Y-42920349D01*
X134095557Y-43253075D01*
X134095529Y-43284996D01*
X133946526Y-43434000D01*
X134095269Y-43582743D01*
X134095243Y-43613345D01*
X134232822Y-43946311D01*
X134487349Y-44201283D01*
X134820075Y-44339443D01*
X135180345Y-44339757D01*
X135513311Y-44202178D01*
X135768283Y-43947651D01*
X135906443Y-43614925D01*
X135906757Y-43254655D01*
X135906757Y-50190400D01*
X135652757Y-50190400D01*
X135652757Y-48715655D01*
X135652757Y-45921655D01*
X135515178Y-45588689D01*
X135260651Y-45333717D01*
X135255000Y-45331370D01*
X135255000Y-45212000D01*
X135222746Y-45049849D01*
X135216331Y-45017597D01*
X135216331Y-45017596D01*
X135106210Y-44852790D01*
X135106210Y-44852789D01*
X134725210Y-44471790D01*
X134560403Y-44361669D01*
X134366000Y-44323000D01*
X134329947Y-44323000D01*
X134343482Y-44262008D01*
X133731000Y-43649526D01*
X133118518Y-44262008D01*
X133132052Y-44323000D01*
X132680899Y-44323000D01*
X132973311Y-44202178D01*
X133228283Y-43947651D01*
X133366443Y-43614925D01*
X133366470Y-43583003D01*
X133515474Y-43434000D01*
X133366730Y-43285256D01*
X133366757Y-43254655D01*
X133229178Y-42921689D01*
X132974651Y-42666717D01*
X132641925Y-42528557D01*
X132308706Y-42528266D01*
X132308706Y-40265275D01*
X132216095Y-40041140D01*
X132044762Y-39869507D01*
X131820789Y-39776506D01*
X131578275Y-39776294D01*
X131354140Y-39868905D01*
X131182507Y-40040238D01*
X131089506Y-40264211D01*
X131089320Y-40476101D01*
X130265054Y-41300367D01*
X130181275Y-41300294D01*
X129957140Y-41392905D01*
X129785507Y-41564238D01*
X129692506Y-41788211D01*
X129692294Y-42030725D01*
X129784905Y-42254860D01*
X129956238Y-42426493D01*
X130180211Y-42519494D01*
X130422725Y-42519706D01*
X130646860Y-42427095D01*
X130818493Y-42255762D01*
X130911494Y-42031789D01*
X130911568Y-41947009D01*
X131893253Y-40965324D01*
X132043860Y-40903095D01*
X132215493Y-40731762D01*
X132308494Y-40507789D01*
X132308706Y-40265275D01*
X132308706Y-42528266D01*
X132281655Y-42528243D01*
X131948689Y-42665822D01*
X131826009Y-42788287D01*
X131704651Y-42666717D01*
X131371925Y-42528557D01*
X131011655Y-42528243D01*
X130678689Y-42665822D01*
X130556009Y-42788287D01*
X130434651Y-42666717D01*
X130101925Y-42528557D01*
X129741655Y-42528243D01*
X129408689Y-42665822D01*
X129286009Y-42788287D01*
X129164651Y-42666717D01*
X129108200Y-42643276D01*
X129108200Y-38227000D01*
X129073398Y-38052037D01*
X128974289Y-37903711D01*
X128244632Y-37174054D01*
X128244706Y-37090275D01*
X128152095Y-36866140D01*
X127980762Y-36694507D01*
X127756789Y-36601506D01*
X127514275Y-36601294D01*
X127290140Y-36693905D01*
X127118507Y-36865238D01*
X127025506Y-37089211D01*
X127025294Y-37331725D01*
X127117905Y-37555860D01*
X127289238Y-37727493D01*
X127513211Y-37820494D01*
X127597990Y-37820568D01*
X128193800Y-38416378D01*
X128193800Y-42643050D01*
X128138689Y-42665822D01*
X127883717Y-42920349D01*
X127745557Y-43253075D01*
X127745243Y-43613345D01*
X127882822Y-43946311D01*
X128137349Y-44201283D01*
X128357482Y-44292690D01*
X128306140Y-44313905D01*
X128297029Y-44323000D01*
X125432420Y-44323000D01*
X124841000Y-43731580D01*
X124841000Y-41502240D01*
X124849493Y-41493762D01*
X124942494Y-41269789D01*
X124942706Y-41027275D01*
X124850095Y-40803140D01*
X124678762Y-40631507D01*
X124454789Y-40538506D01*
X124212275Y-40538294D01*
X123988140Y-40630905D01*
X123816507Y-40802238D01*
X123723506Y-41026211D01*
X123723294Y-41268725D01*
X123815905Y-41492860D01*
X123825000Y-41501970D01*
X123825000Y-43942000D01*
X123863669Y-44136403D01*
X123973790Y-44301210D01*
X124862790Y-45190210D01*
X125027597Y-45300331D01*
X125222000Y-45339000D01*
X125464421Y-45339000D01*
X124771711Y-46031711D01*
X124672602Y-46180037D01*
X124637800Y-46355000D01*
X124637800Y-47333471D01*
X124628432Y-47335335D01*
X124232895Y-47599624D01*
X123968606Y-47995161D01*
X123875800Y-48461729D01*
X123875800Y-48820271D01*
X123968606Y-49286839D01*
X124232895Y-49682376D01*
X124628432Y-49946665D01*
X125095000Y-50039471D01*
X125561568Y-49946665D01*
X125957105Y-49682376D01*
X126221394Y-49286839D01*
X126314200Y-48820271D01*
X126314200Y-48461729D01*
X126221394Y-47995161D01*
X125957105Y-47599624D01*
X125561568Y-47335335D01*
X125552200Y-47333471D01*
X125552200Y-46544378D01*
X126147968Y-45948610D01*
X127357048Y-45948610D01*
X127416238Y-46007903D01*
X127640211Y-46100904D01*
X127882725Y-46101116D01*
X128106860Y-46008505D01*
X128278493Y-45837172D01*
X128371494Y-45613199D01*
X128371702Y-45375091D01*
X128529211Y-45440494D01*
X128771725Y-45440706D01*
X128995860Y-45348095D01*
X129167493Y-45176762D01*
X129260494Y-44952789D01*
X129260706Y-44710275D01*
X129168095Y-44486140D01*
X128996762Y-44314507D01*
X128944237Y-44292697D01*
X129163311Y-44202178D01*
X129285990Y-44079712D01*
X129407349Y-44201283D01*
X129413000Y-44203629D01*
X129413000Y-44211817D01*
X129451669Y-44406220D01*
X129561790Y-44571027D01*
X131450973Y-46460210D01*
X131615779Y-46570331D01*
X131615780Y-46570331D01*
X131648032Y-46576746D01*
X131810183Y-46609000D01*
X132699183Y-46609000D01*
X132707040Y-46609000D01*
X132708822Y-46613311D01*
X132963349Y-46868283D01*
X133296075Y-47006443D01*
X133656345Y-47006757D01*
X133989311Y-46869178D01*
X134111990Y-46746712D01*
X134233349Y-46868283D01*
X134566075Y-47006443D01*
X134926345Y-47006757D01*
X135259311Y-46869178D01*
X135514283Y-46614651D01*
X135652443Y-46281925D01*
X135652757Y-45921655D01*
X135652757Y-48715655D01*
X135515178Y-48382689D01*
X135260651Y-48127717D01*
X134927925Y-47989557D01*
X134567655Y-47989243D01*
X134234689Y-48126822D01*
X134112009Y-48249287D01*
X133990651Y-48127717D01*
X133657925Y-47989557D01*
X133297655Y-47989243D01*
X132964689Y-48126822D01*
X132709717Y-48381349D01*
X132571557Y-48714075D01*
X132571243Y-49074345D01*
X132708822Y-49407311D01*
X132963349Y-49662283D01*
X133296075Y-49800443D01*
X133656345Y-49800757D01*
X133989311Y-49663178D01*
X134111990Y-49540712D01*
X134233349Y-49662283D01*
X134566075Y-49800443D01*
X134926345Y-49800757D01*
X135259311Y-49663178D01*
X135514283Y-49408651D01*
X135652443Y-49075925D01*
X135652757Y-48715655D01*
X135652757Y-50190400D01*
X131343820Y-50190400D01*
X131383911Y-50173794D01*
X131555394Y-50002311D01*
X131648200Y-49778257D01*
X131648200Y-49535743D01*
X131648200Y-48945800D01*
X131648200Y-48336200D01*
X131648200Y-47746257D01*
X131648200Y-47503743D01*
X131555394Y-47279689D01*
X131383911Y-47108206D01*
X131159857Y-47015400D01*
X130479800Y-47015400D01*
X130327400Y-47167800D01*
X130327400Y-48488600D01*
X131495800Y-48488600D01*
X131648200Y-48336200D01*
X131648200Y-48945800D01*
X131495800Y-48793400D01*
X130327400Y-48793400D01*
X130327400Y-48813400D01*
X130022600Y-48813400D01*
X130022600Y-48793400D01*
X130002600Y-48793400D01*
X130002600Y-48488600D01*
X130022600Y-48488600D01*
X130022600Y-47167800D01*
X129870200Y-47015400D01*
X129190143Y-47015400D01*
X128966089Y-47108206D01*
X128794606Y-47279689D01*
X128701800Y-47503743D01*
X128701800Y-47746257D01*
X128701800Y-47905972D01*
X128497105Y-47599624D01*
X128101568Y-47335335D01*
X127635000Y-47242529D01*
X127168432Y-47335335D01*
X126772895Y-47599624D01*
X126508606Y-47995161D01*
X126415800Y-48461729D01*
X126415800Y-48820271D01*
X126508606Y-49286839D01*
X126772895Y-49682376D01*
X127168432Y-49946665D01*
X127635000Y-50039471D01*
X128101568Y-49946665D01*
X128497105Y-49682376D01*
X128701800Y-49376027D01*
X128701800Y-49535743D01*
X128701800Y-49778257D01*
X128794606Y-50002311D01*
X128966089Y-50173794D01*
X129006179Y-50190400D01*
X122587638Y-50190400D01*
X122587638Y-47496515D01*
X122587638Y-43559515D01*
X122546180Y-43100064D01*
X122450115Y-42868142D01*
X122240008Y-42821518D01*
X122024482Y-43037044D01*
X121627526Y-43434000D01*
X122240008Y-44046482D01*
X122450115Y-43999858D01*
X122587638Y-43559515D01*
X122587638Y-47496515D01*
X122546180Y-47037064D01*
X122450115Y-46805142D01*
X122240008Y-46758518D01*
X122024482Y-46974044D01*
X121627526Y-47371000D01*
X122240008Y-47983482D01*
X122450115Y-47936858D01*
X122587638Y-47496515D01*
X122587638Y-50190400D01*
X120751600Y-50190400D01*
X120751600Y-49261277D01*
X120898349Y-49408283D01*
X121231075Y-49546443D01*
X121591345Y-49546757D01*
X121924311Y-49409178D01*
X122179283Y-49154651D01*
X122317443Y-48821925D01*
X122317757Y-48461655D01*
X122180178Y-48128689D01*
X121925651Y-47873717D01*
X121592925Y-47735557D01*
X121561003Y-47735529D01*
X121412000Y-47586526D01*
X121397857Y-47600668D01*
X121182331Y-47385142D01*
X121196474Y-47371000D01*
X121182331Y-47356857D01*
X121397857Y-47141331D01*
X121412000Y-47155474D01*
X122024482Y-46542992D01*
X121977858Y-46332885D01*
X121537515Y-46195362D01*
X121078064Y-46236820D01*
X120846142Y-46332885D01*
X120799518Y-46542989D01*
X120751600Y-46495071D01*
X120751600Y-45324277D01*
X120898349Y-45471283D01*
X121231075Y-45609443D01*
X121591345Y-45609757D01*
X121924311Y-45472178D01*
X122179283Y-45217651D01*
X122317443Y-44884925D01*
X122317757Y-44524655D01*
X122180178Y-44191689D01*
X121925651Y-43936717D01*
X121592925Y-43798557D01*
X121561003Y-43798529D01*
X121412000Y-43649526D01*
X121397857Y-43663668D01*
X121182331Y-43448142D01*
X121196474Y-43434000D01*
X121182331Y-43419857D01*
X121397857Y-43204331D01*
X121412000Y-43218474D01*
X122024482Y-42605992D01*
X121977858Y-42395885D01*
X121537515Y-42258362D01*
X121078064Y-42299820D01*
X120846142Y-42395885D01*
X120799518Y-42605989D01*
X120751600Y-42558071D01*
X120751600Y-30073600D01*
X125222000Y-30073600D01*
X141884400Y-30073600D01*
X141884400Y-41543722D01*
X141737651Y-41396717D01*
X141494757Y-41295858D01*
X141494757Y-34618655D01*
X141494757Y-31951655D01*
X141357178Y-31618689D01*
X141102651Y-31363717D01*
X140769925Y-31225557D01*
X140409655Y-31225243D01*
X140076689Y-31362822D01*
X139931482Y-31507775D01*
X139931482Y-31302992D01*
X139884858Y-31092885D01*
X139444515Y-30955362D01*
X138985064Y-30996820D01*
X138753142Y-31092885D01*
X138706518Y-31302992D01*
X139319000Y-31915474D01*
X139931482Y-31302992D01*
X139931482Y-31507775D01*
X139821717Y-31617349D01*
X139683557Y-31950075D01*
X139683529Y-31981996D01*
X139534526Y-32131000D01*
X139683269Y-32279743D01*
X139683243Y-32310345D01*
X139820822Y-32643311D01*
X140075349Y-32898283D01*
X140408075Y-33036443D01*
X140768345Y-33036757D01*
X141101311Y-32899178D01*
X141356283Y-32644651D01*
X141494443Y-32311925D01*
X141494757Y-31951655D01*
X141494757Y-34618655D01*
X141357178Y-34285689D01*
X141102651Y-34030717D01*
X140769925Y-33892557D01*
X140409655Y-33892243D01*
X140076689Y-34029822D01*
X139931482Y-34174775D01*
X139931482Y-33969992D01*
X139931482Y-32959008D01*
X139319000Y-32346526D01*
X139103474Y-32562052D01*
X139103474Y-32131000D01*
X138954730Y-31982256D01*
X138954757Y-31951655D01*
X138817178Y-31618689D01*
X138562651Y-31363717D01*
X138229925Y-31225557D01*
X137869655Y-31225243D01*
X137536689Y-31362822D01*
X137281717Y-31617349D01*
X137143557Y-31950075D01*
X137143243Y-32310345D01*
X137280822Y-32643311D01*
X137535349Y-32898283D01*
X137868075Y-33036443D01*
X138228345Y-33036757D01*
X138561311Y-32899178D01*
X138816283Y-32644651D01*
X138954443Y-32311925D01*
X138954470Y-32280003D01*
X139103474Y-32131000D01*
X139103474Y-32562052D01*
X138706518Y-32959008D01*
X138753142Y-33169115D01*
X139193485Y-33306638D01*
X139652936Y-33265180D01*
X139884858Y-33169115D01*
X139931482Y-32959008D01*
X139931482Y-33969992D01*
X139884858Y-33759885D01*
X139444515Y-33622362D01*
X138985064Y-33663820D01*
X138753142Y-33759885D01*
X138706518Y-33969992D01*
X139319000Y-34582474D01*
X139931482Y-33969992D01*
X139931482Y-34174775D01*
X139821717Y-34284349D01*
X139683557Y-34617075D01*
X139683529Y-34648996D01*
X139534526Y-34798000D01*
X139683269Y-34946743D01*
X139683243Y-34977345D01*
X139820822Y-35310311D01*
X140075349Y-35565283D01*
X140408075Y-35703443D01*
X140768345Y-35703757D01*
X141101311Y-35566178D01*
X141356283Y-35311651D01*
X141494443Y-34978925D01*
X141494757Y-34618655D01*
X141494757Y-41295858D01*
X141404925Y-41258557D01*
X141044655Y-41258243D01*
X140711689Y-41395822D01*
X140589009Y-41518287D01*
X140467651Y-41396717D01*
X140134925Y-41258557D01*
X139931482Y-41258379D01*
X139931482Y-35626008D01*
X139319000Y-35013526D01*
X139103474Y-35229052D01*
X139103474Y-34798000D01*
X138954730Y-34649256D01*
X138954757Y-34618655D01*
X138817178Y-34285689D01*
X138562651Y-34030717D01*
X138229925Y-33892557D01*
X137869655Y-33892243D01*
X137536689Y-34029822D01*
X137281717Y-34284349D01*
X137143557Y-34617075D01*
X137143243Y-34977345D01*
X137280822Y-35310311D01*
X137535349Y-35565283D01*
X137868075Y-35703443D01*
X138228345Y-35703757D01*
X138561311Y-35566178D01*
X138816283Y-35311651D01*
X138954443Y-34978925D01*
X138954470Y-34947003D01*
X139103474Y-34798000D01*
X139103474Y-35229052D01*
X138706518Y-35626008D01*
X138753142Y-35836115D01*
X139193485Y-35973638D01*
X139652936Y-35932180D01*
X139884858Y-35836115D01*
X139931482Y-35626008D01*
X139931482Y-41258379D01*
X139774655Y-41258243D01*
X139441689Y-41395822D01*
X139319009Y-41518287D01*
X139197651Y-41396717D01*
X138864925Y-41258557D01*
X138504655Y-41258243D01*
X138171689Y-41395822D01*
X138049009Y-41518287D01*
X137927651Y-41396717D01*
X137594925Y-41258557D01*
X137294918Y-41258295D01*
X137356289Y-41217289D01*
X138372289Y-40201289D01*
X138471398Y-40052963D01*
X138506200Y-39878000D01*
X138506200Y-39497000D01*
X138506200Y-38250951D01*
X138565493Y-38191762D01*
X138658494Y-37967789D01*
X138658706Y-37725275D01*
X138566095Y-37501140D01*
X138394762Y-37329507D01*
X138170789Y-37236506D01*
X137928275Y-37236294D01*
X137704140Y-37328905D01*
X137532507Y-37500238D01*
X137439506Y-37724211D01*
X137439294Y-37966725D01*
X137531905Y-38190860D01*
X137591800Y-38250859D01*
X137591800Y-39497000D01*
X137591800Y-39688622D01*
X136843622Y-40436800D01*
X136548951Y-40436800D01*
X136499706Y-40387468D01*
X136499706Y-38487275D01*
X136407095Y-38263140D01*
X136235762Y-38091507D01*
X136011789Y-37998506D01*
X135769275Y-37998294D01*
X135707545Y-38023800D01*
X133373951Y-38023800D01*
X133314762Y-37964507D01*
X133090789Y-37871506D01*
X132848275Y-37871294D01*
X132624140Y-37963905D01*
X132452507Y-38135238D01*
X132359506Y-38359211D01*
X132359294Y-38601725D01*
X132451905Y-38825860D01*
X132623238Y-38997493D01*
X132847211Y-39090494D01*
X133089725Y-39090706D01*
X133313860Y-38998095D01*
X133373859Y-38938200D01*
X135366847Y-38938200D01*
X135372905Y-38952860D01*
X135544238Y-39124493D01*
X135768211Y-39217494D01*
X136010725Y-39217706D01*
X136234860Y-39125095D01*
X136406493Y-38953762D01*
X136499494Y-38729789D01*
X136499706Y-38487275D01*
X136499706Y-40387468D01*
X136489762Y-40377507D01*
X136265789Y-40284506D01*
X136023275Y-40284294D01*
X135799140Y-40376905D01*
X135627507Y-40548238D01*
X135534506Y-40772211D01*
X135534294Y-41014725D01*
X135626905Y-41238860D01*
X135798238Y-41410493D01*
X136022211Y-41503494D01*
X136264725Y-41503706D01*
X136488860Y-41411095D01*
X136548859Y-41351200D01*
X137009682Y-41351200D01*
X136901689Y-41395822D01*
X136646717Y-41650349D01*
X136508557Y-41983075D01*
X136508243Y-42343345D01*
X136645822Y-42676311D01*
X136900349Y-42931283D01*
X137233075Y-43069443D01*
X137593345Y-43069757D01*
X137926311Y-42932178D01*
X138048990Y-42809712D01*
X138170349Y-42931283D01*
X138503075Y-43069443D01*
X138863345Y-43069757D01*
X139196311Y-42932178D01*
X139318990Y-42809712D01*
X139440349Y-42931283D01*
X139773075Y-43069443D01*
X140133345Y-43069757D01*
X140466311Y-42932178D01*
X140588990Y-42809712D01*
X140710349Y-42931283D01*
X141043075Y-43069443D01*
X141403345Y-43069757D01*
X141736311Y-42932178D01*
X141884400Y-42784347D01*
X141884400Y-44083722D01*
X141737651Y-43936717D01*
X141404925Y-43798557D01*
X141044655Y-43798243D01*
X140711689Y-43935822D01*
X140589009Y-44058287D01*
X140467651Y-43936717D01*
X140134925Y-43798557D01*
X139774655Y-43798243D01*
X139441689Y-43935822D01*
X139319009Y-44058287D01*
X139197651Y-43936717D01*
X138864925Y-43798557D01*
X138504655Y-43798243D01*
X138171689Y-43935822D01*
X138049009Y-44058287D01*
X137927651Y-43936717D01*
X137594925Y-43798557D01*
X137234655Y-43798243D01*
X136901689Y-43935822D01*
X136646717Y-44190349D01*
X136508557Y-44523075D01*
X136508243Y-44883345D01*
X136645822Y-45216311D01*
X136900349Y-45471283D01*
X137233075Y-45609443D01*
X137593345Y-45609757D01*
X137926311Y-45472178D01*
X138048990Y-45349712D01*
X138170349Y-45471283D01*
X138503075Y-45609443D01*
X138863345Y-45609757D01*
X139196311Y-45472178D01*
X139318990Y-45349712D01*
X139440349Y-45471283D01*
X139773075Y-45609443D01*
X140133345Y-45609757D01*
X140466311Y-45472178D01*
X140588990Y-45349712D01*
X140710349Y-45471283D01*
X141043075Y-45609443D01*
X141403345Y-45609757D01*
X141736311Y-45472178D01*
X141884400Y-45324347D01*
X141884400Y-46623722D01*
X141737651Y-46476717D01*
X141404925Y-46338557D01*
X141044655Y-46338243D01*
X140711689Y-46475822D01*
X140589009Y-46598287D01*
X140467651Y-46476717D01*
X140134925Y-46338557D01*
X139774655Y-46338243D01*
X139441689Y-46475822D01*
X139319009Y-46598287D01*
X139197651Y-46476717D01*
X138864925Y-46338557D01*
X138504655Y-46338243D01*
X138171689Y-46475822D01*
X138049009Y-46598287D01*
X137927651Y-46476717D01*
X137594925Y-46338557D01*
X137234655Y-46338243D01*
X136901689Y-46475822D01*
X136646717Y-46730349D01*
X136508557Y-47063075D01*
X136508243Y-47423345D01*
X136645822Y-47756311D01*
X136900349Y-48011283D01*
X137233075Y-48149443D01*
X137593345Y-48149757D01*
X137926311Y-48012178D01*
X138048990Y-47889712D01*
X138170349Y-48011283D01*
X138503075Y-48149443D01*
X138863345Y-48149757D01*
X139196311Y-48012178D01*
X139318990Y-47889712D01*
X139440349Y-48011283D01*
X139773075Y-48149443D01*
X140133345Y-48149757D01*
X140466311Y-48012178D01*
X140588990Y-47889712D01*
X140710349Y-48011283D01*
X141043075Y-48149443D01*
X141403345Y-48149757D01*
X141736311Y-48012178D01*
X141884400Y-47864347D01*
X141884400Y-49163722D01*
M02*
