G04 #@! TF.FileFunction,Legend,Top*
%FSLAX46Y46*%
G04 Gerber Fmt 4.6, Leading zero omitted, Abs format (unit mm)*
G04 Created by KiCad (PCBNEW (2014-12-04 BZR 5312)-product) date 4/7/2015 9:57:59 PM*
%MOMM*%
G01*
G04 APERTURE LIST*
%ADD10C,0.100000*%
%ADD11C,0.127000*%
%ADD12C,0.190500*%
%ADD13C,0.150000*%
%ADD14C,0.125000*%
G04 APERTURE END LIST*
D10*
D11*
X120988667Y-47117000D02*
X120940286Y-47092810D01*
X120867714Y-47092810D01*
X120795143Y-47117000D01*
X120746762Y-47165381D01*
X120722571Y-47213762D01*
X120698381Y-47310524D01*
X120698381Y-47383095D01*
X120722571Y-47479857D01*
X120746762Y-47528238D01*
X120795143Y-47576619D01*
X120867714Y-47600810D01*
X120916095Y-47600810D01*
X120988667Y-47576619D01*
X121012857Y-47552429D01*
X121012857Y-47383095D01*
X120916095Y-47383095D01*
X121230571Y-47600810D02*
X121230571Y-47092810D01*
X121520857Y-47600810D01*
X121520857Y-47092810D01*
X121762761Y-47600810D02*
X121762761Y-47092810D01*
X121883714Y-47092810D01*
X121956285Y-47117000D01*
X122004666Y-47165381D01*
X122028857Y-47213762D01*
X122053047Y-47310524D01*
X122053047Y-47383095D01*
X122028857Y-47479857D01*
X122004666Y-47528238D01*
X121956285Y-47576619D01*
X121883714Y-47600810D01*
X121762761Y-47600810D01*
X122585238Y-47092810D02*
X122754571Y-47600810D01*
X122923905Y-47092810D01*
X123093238Y-47600810D02*
X123093238Y-47092810D01*
X123335143Y-47600810D02*
X123335143Y-47092810D01*
X123625429Y-47600810D01*
X123625429Y-47092810D01*
X125058714Y-47576619D02*
X125131285Y-47600810D01*
X125252238Y-47600810D01*
X125300619Y-47576619D01*
X125324809Y-47552429D01*
X125349000Y-47504048D01*
X125349000Y-47455667D01*
X125324809Y-47407286D01*
X125300619Y-47383095D01*
X125252238Y-47358905D01*
X125155476Y-47334714D01*
X125107095Y-47310524D01*
X125082904Y-47286333D01*
X125058714Y-47237952D01*
X125058714Y-47189571D01*
X125082904Y-47141190D01*
X125107095Y-47117000D01*
X125155476Y-47092810D01*
X125276428Y-47092810D01*
X125349000Y-47117000D01*
X126340810Y-47407286D02*
X126727858Y-47407286D01*
X126534334Y-47600810D02*
X126534334Y-47213762D01*
X127622906Y-47117000D02*
X127574525Y-47092810D01*
X127501953Y-47092810D01*
X127429382Y-47117000D01*
X127381001Y-47165381D01*
X127356810Y-47213762D01*
X127332620Y-47310524D01*
X127332620Y-47383095D01*
X127356810Y-47479857D01*
X127381001Y-47528238D01*
X127429382Y-47576619D01*
X127501953Y-47600810D01*
X127550334Y-47600810D01*
X127622906Y-47576619D01*
X127647096Y-47552429D01*
X127647096Y-47383095D01*
X127550334Y-47383095D01*
X127864810Y-47600810D02*
X127864810Y-47092810D01*
X128155096Y-47600810D01*
X128155096Y-47092810D01*
X128397000Y-47600810D02*
X128397000Y-47092810D01*
X128517953Y-47092810D01*
X128590524Y-47117000D01*
X128638905Y-47165381D01*
X128663096Y-47213762D01*
X128687286Y-47310524D01*
X128687286Y-47383095D01*
X128663096Y-47479857D01*
X128638905Y-47528238D01*
X128590524Y-47576619D01*
X128517953Y-47600810D01*
X128397000Y-47600810D01*
X129806095Y-47576619D02*
X129878666Y-47600810D01*
X129999619Y-47600810D01*
X130048000Y-47576619D01*
X130072190Y-47552429D01*
X130096381Y-47504048D01*
X130096381Y-47455667D01*
X130072190Y-47407286D01*
X130048000Y-47383095D01*
X129999619Y-47358905D01*
X129902857Y-47334714D01*
X129854476Y-47310524D01*
X129830285Y-47286333D01*
X129806095Y-47237952D01*
X129806095Y-47189571D01*
X129830285Y-47141190D01*
X129854476Y-47117000D01*
X129902857Y-47092810D01*
X130023809Y-47092810D01*
X130096381Y-47117000D01*
X130604381Y-47552429D02*
X130580191Y-47576619D01*
X130507619Y-47600810D01*
X130459238Y-47600810D01*
X130386667Y-47576619D01*
X130338286Y-47528238D01*
X130314095Y-47479857D01*
X130289905Y-47383095D01*
X130289905Y-47310524D01*
X130314095Y-47213762D01*
X130338286Y-47165381D01*
X130386667Y-47117000D01*
X130459238Y-47092810D01*
X130507619Y-47092810D01*
X130580191Y-47117000D01*
X130604381Y-47141190D01*
X131064000Y-47600810D02*
X130822095Y-47600810D01*
X130822095Y-47092810D01*
X131596191Y-47576619D02*
X131668762Y-47600810D01*
X131789715Y-47600810D01*
X131838096Y-47576619D01*
X131862286Y-47552429D01*
X131886477Y-47504048D01*
X131886477Y-47455667D01*
X131862286Y-47407286D01*
X131838096Y-47383095D01*
X131789715Y-47358905D01*
X131692953Y-47334714D01*
X131644572Y-47310524D01*
X131620381Y-47286333D01*
X131596191Y-47237952D01*
X131596191Y-47189571D01*
X131620381Y-47141190D01*
X131644572Y-47117000D01*
X131692953Y-47092810D01*
X131813905Y-47092810D01*
X131886477Y-47117000D01*
X132104191Y-47600810D02*
X132104191Y-47092810D01*
X132225144Y-47092810D01*
X132297715Y-47117000D01*
X132346096Y-47165381D01*
X132370287Y-47213762D01*
X132394477Y-47310524D01*
X132394477Y-47383095D01*
X132370287Y-47479857D01*
X132346096Y-47528238D01*
X132297715Y-47576619D01*
X132225144Y-47600810D01*
X132104191Y-47600810D01*
X132588001Y-47455667D02*
X132829906Y-47455667D01*
X132539620Y-47600810D02*
X132708953Y-47092810D01*
X132878287Y-47600810D01*
X136682237Y-33485667D02*
X136924142Y-33485667D01*
X136633856Y-33630810D02*
X136803189Y-33122810D01*
X136972523Y-33630810D01*
X137238618Y-33122810D02*
X137286999Y-33122810D01*
X137335380Y-33147000D01*
X137359571Y-33171190D01*
X137383761Y-33219571D01*
X137407952Y-33316333D01*
X137407952Y-33437286D01*
X137383761Y-33534048D01*
X137359571Y-33582429D01*
X137335380Y-33606619D01*
X137286999Y-33630810D01*
X137238618Y-33630810D01*
X137190237Y-33606619D01*
X137166047Y-33582429D01*
X137141856Y-33534048D01*
X137117666Y-33437286D01*
X137117666Y-33316333D01*
X137141856Y-33219571D01*
X137166047Y-33171190D01*
X137190237Y-33147000D01*
X137238618Y-33122810D01*
X137988524Y-33485667D02*
X138230429Y-33485667D01*
X137940143Y-33630810D02*
X138109476Y-33122810D01*
X138278810Y-33630810D01*
X138714239Y-33630810D02*
X138423953Y-33630810D01*
X138569096Y-33630810D02*
X138569096Y-33122810D01*
X138520715Y-33195381D01*
X138472334Y-33243762D01*
X138423953Y-33267952D01*
X139585097Y-33147000D02*
X139536716Y-33122810D01*
X139464144Y-33122810D01*
X139391573Y-33147000D01*
X139343192Y-33195381D01*
X139319001Y-33243762D01*
X139294811Y-33340524D01*
X139294811Y-33413095D01*
X139319001Y-33509857D01*
X139343192Y-33558238D01*
X139391573Y-33606619D01*
X139464144Y-33630810D01*
X139512525Y-33630810D01*
X139585097Y-33606619D01*
X139609287Y-33582429D01*
X139609287Y-33413095D01*
X139512525Y-33413095D01*
X139827001Y-33630810D02*
X139827001Y-33122810D01*
X140117287Y-33630810D01*
X140117287Y-33122810D01*
X140359191Y-33630810D02*
X140359191Y-33122810D01*
X140480144Y-33122810D01*
X140552715Y-33147000D01*
X140601096Y-33195381D01*
X140625287Y-33243762D01*
X140649477Y-33340524D01*
X140649477Y-33413095D01*
X140625287Y-33509857D01*
X140601096Y-33558238D01*
X140552715Y-33606619D01*
X140480144Y-33630810D01*
X140359191Y-33630810D01*
X141496144Y-33122810D02*
X141254239Y-33122810D01*
X141230049Y-33364714D01*
X141254239Y-33340524D01*
X141302620Y-33316333D01*
X141423573Y-33316333D01*
X141471954Y-33340524D01*
X141496144Y-33364714D01*
X141520335Y-33413095D01*
X141520335Y-33534048D01*
X141496144Y-33582429D01*
X141471954Y-33606619D01*
X141423573Y-33630810D01*
X141302620Y-33630810D01*
X141254239Y-33606619D01*
X141230049Y-33582429D01*
X141665478Y-33122810D02*
X141834811Y-33630810D01*
X142004145Y-33122810D01*
D12*
X122083285Y-34495619D02*
X122337285Y-35511619D01*
X122591285Y-34495619D01*
X123280714Y-35511619D02*
X123026714Y-35027810D01*
X122845286Y-35511619D02*
X122845286Y-34495619D01*
X123135571Y-34495619D01*
X123208143Y-34544000D01*
X123244428Y-34592381D01*
X123280714Y-34689143D01*
X123280714Y-34834286D01*
X123244428Y-34931048D01*
X123208143Y-34979429D01*
X123135571Y-35027810D01*
X122845286Y-35027810D01*
X123607286Y-34979429D02*
X123861286Y-34979429D01*
X123970143Y-35511619D02*
X123607286Y-35511619D01*
X123607286Y-34495619D01*
X123970143Y-34495619D01*
X124695857Y-34544000D02*
X124623286Y-34495619D01*
X124514429Y-34495619D01*
X124405572Y-34544000D01*
X124333000Y-34640762D01*
X124296715Y-34737524D01*
X124260429Y-34931048D01*
X124260429Y-35076190D01*
X124296715Y-35269714D01*
X124333000Y-35366476D01*
X124405572Y-35463238D01*
X124514429Y-35511619D01*
X124587000Y-35511619D01*
X124695857Y-35463238D01*
X124732143Y-35414857D01*
X124732143Y-35076190D01*
X124587000Y-35076190D01*
D11*
X136875760Y-47600810D02*
X136875760Y-47092810D01*
X136996713Y-47092810D01*
X137069284Y-47117000D01*
X137117665Y-47165381D01*
X137141856Y-47213762D01*
X137166046Y-47310524D01*
X137166046Y-47383095D01*
X137141856Y-47479857D01*
X137117665Y-47528238D01*
X137069284Y-47576619D01*
X136996713Y-47600810D01*
X136875760Y-47600810D01*
X137335379Y-47092810D02*
X137649856Y-47092810D01*
X137480522Y-47286333D01*
X137553094Y-47286333D01*
X137601475Y-47310524D01*
X137625665Y-47334714D01*
X137649856Y-47383095D01*
X137649856Y-47504048D01*
X137625665Y-47552429D01*
X137601475Y-47576619D01*
X137553094Y-47600810D01*
X137407951Y-47600810D01*
X137359570Y-47576619D01*
X137335379Y-47552429D01*
X138254618Y-47600810D02*
X138254618Y-47092810D01*
X138375571Y-47092810D01*
X138448142Y-47117000D01*
X138496523Y-47165381D01*
X138520714Y-47213762D01*
X138544904Y-47310524D01*
X138544904Y-47383095D01*
X138520714Y-47479857D01*
X138496523Y-47528238D01*
X138448142Y-47576619D01*
X138375571Y-47600810D01*
X138254618Y-47600810D01*
X139004523Y-47092810D02*
X138762618Y-47092810D01*
X138738428Y-47334714D01*
X138762618Y-47310524D01*
X138810999Y-47286333D01*
X138931952Y-47286333D01*
X138980333Y-47310524D01*
X139004523Y-47334714D01*
X139028714Y-47383095D01*
X139028714Y-47504048D01*
X139004523Y-47552429D01*
X138980333Y-47576619D01*
X138931952Y-47600810D01*
X138810999Y-47600810D01*
X138762618Y-47576619D01*
X138738428Y-47552429D01*
X139633476Y-47600810D02*
X139633476Y-47092810D01*
X139754429Y-47092810D01*
X139827000Y-47117000D01*
X139875381Y-47165381D01*
X139899572Y-47213762D01*
X139923762Y-47310524D01*
X139923762Y-47383095D01*
X139899572Y-47479857D01*
X139875381Y-47528238D01*
X139827000Y-47576619D01*
X139754429Y-47600810D01*
X139633476Y-47600810D01*
X140093095Y-47092810D02*
X140431762Y-47092810D01*
X140214048Y-47600810D01*
X141012334Y-47600810D02*
X141012334Y-47092810D01*
X141133287Y-47092810D01*
X141205858Y-47117000D01*
X141254239Y-47165381D01*
X141278430Y-47213762D01*
X141302620Y-47310524D01*
X141302620Y-47383095D01*
X141278430Y-47479857D01*
X141254239Y-47528238D01*
X141205858Y-47576619D01*
X141133287Y-47600810D01*
X141012334Y-47600810D01*
X141592906Y-47310524D02*
X141544525Y-47286333D01*
X141520334Y-47262143D01*
X141496144Y-47213762D01*
X141496144Y-47189571D01*
X141520334Y-47141190D01*
X141544525Y-47117000D01*
X141592906Y-47092810D01*
X141689668Y-47092810D01*
X141738049Y-47117000D01*
X141762239Y-47141190D01*
X141786430Y-47189571D01*
X141786430Y-47213762D01*
X141762239Y-47262143D01*
X141738049Y-47286333D01*
X141689668Y-47310524D01*
X141592906Y-47310524D01*
X141544525Y-47334714D01*
X141520334Y-47358905D01*
X141496144Y-47407286D01*
X141496144Y-47504048D01*
X141520334Y-47552429D01*
X141544525Y-47576619D01*
X141592906Y-47600810D01*
X141689668Y-47600810D01*
X141738049Y-47576619D01*
X141762239Y-47552429D01*
X141786430Y-47504048D01*
X141786430Y-47407286D01*
X141762239Y-47358905D01*
X141738049Y-47334714D01*
X141689668Y-47310524D01*
D13*
X126527000Y-32608000D02*
X126527000Y-31908000D01*
X127727000Y-31908000D02*
X127727000Y-32608000D01*
X122397000Y-41748000D02*
X121697000Y-41748000D01*
X121697000Y-40548000D02*
X122397000Y-40548000D01*
X129444000Y-30515000D02*
X130144000Y-30515000D01*
X130144000Y-31715000D02*
X129444000Y-31715000D01*
X133223000Y-47371000D02*
X133223000Y-44831000D01*
X133223000Y-44831000D02*
X129413000Y-44831000D01*
X129413000Y-44831000D02*
X129413000Y-47371000D01*
X129413000Y-47371000D02*
X133223000Y-47371000D01*
X124079000Y-47371000D02*
X124079000Y-44831000D01*
X124079000Y-44831000D02*
X120269000Y-44831000D01*
X120269000Y-44831000D02*
X120269000Y-47371000D01*
X120269000Y-47371000D02*
X124079000Y-47371000D01*
X142494000Y-47371000D02*
X142494000Y-38481000D01*
X142494000Y-38481000D02*
X136144000Y-38481000D01*
X136144000Y-38481000D02*
X136144000Y-47371000D01*
X136144000Y-47371000D02*
X142494000Y-47371000D01*
X136144000Y-30226000D02*
X142494000Y-30226000D01*
X142494000Y-30226000D02*
X142494000Y-32766000D01*
X142494000Y-32766000D02*
X136144000Y-32766000D01*
X136144000Y-32766000D02*
X136144000Y-30226000D01*
X126709555Y-30512000D02*
G75*
G03X126709555Y-30512000I-360555J0D01*
G01*
X126349000Y-40012000D02*
X126349000Y-30512000D01*
X126349000Y-30512000D02*
X120349000Y-30512000D01*
X120349000Y-30512000D02*
X120349000Y-40012000D01*
X120349000Y-40012000D02*
X126349000Y-40012000D01*
X129751000Y-32507000D02*
X129751000Y-32622000D01*
X133901000Y-32507000D02*
X133901000Y-32622000D01*
X133901000Y-41407000D02*
X133901000Y-41292000D01*
X129751000Y-41407000D02*
X129751000Y-41292000D01*
X129751000Y-32507000D02*
X133901000Y-32507000D01*
X129751000Y-41407000D02*
X133901000Y-41407000D01*
X129751000Y-32622000D02*
X128376000Y-32622000D01*
X126902160Y-41513760D02*
X126853900Y-41513760D01*
X124103180Y-42214800D02*
X124103180Y-41513760D01*
X124103180Y-41513760D02*
X124352100Y-41513760D01*
X126902160Y-41513760D02*
X127102820Y-41513760D01*
X127102820Y-41513760D02*
X127102820Y-42214800D01*
X128651000Y-44704000D02*
X127381000Y-44704000D01*
X127381000Y-44704000D02*
X127381000Y-42164000D01*
X127381000Y-42164000D02*
X128651000Y-42164000D01*
X136271000Y-44704000D02*
X128651000Y-44704000D01*
X128651000Y-42164000D02*
X136271000Y-42164000D01*
X136271000Y-42164000D02*
X136271000Y-44704000D01*
X124206000Y-44831000D02*
X129286000Y-44831000D01*
X129286000Y-44831000D02*
X129286000Y-47371000D01*
X129286000Y-47371000D02*
X124206000Y-47371000D01*
X124206000Y-47371000D02*
X124206000Y-44831000D01*
X136889000Y-37088000D02*
X136889000Y-37588000D01*
X137939000Y-37588000D02*
X137939000Y-37088000D01*
X138159000Y-37088000D02*
X138159000Y-37588000D01*
X139209000Y-37588000D02*
X139209000Y-37088000D01*
X139429000Y-37088000D02*
X139429000Y-37588000D01*
X140479000Y-37588000D02*
X140479000Y-37088000D01*
X140699000Y-37088000D02*
X140699000Y-37588000D01*
X141749000Y-37588000D02*
X141749000Y-37088000D01*
X127484143Y-34710666D02*
X127531762Y-34758285D01*
X127579381Y-34901142D01*
X127579381Y-34996380D01*
X127531762Y-35139238D01*
X127436524Y-35234476D01*
X127341286Y-35282095D01*
X127150810Y-35329714D01*
X127007952Y-35329714D01*
X126817476Y-35282095D01*
X126722238Y-35234476D01*
X126627000Y-35139238D01*
X126579381Y-34996380D01*
X126579381Y-34901142D01*
X126627000Y-34758285D01*
X126674619Y-34710666D01*
X127579381Y-33758285D02*
X127579381Y-34329714D01*
X127579381Y-34044000D02*
X126579381Y-34044000D01*
X126722238Y-34139238D01*
X126817476Y-34234476D01*
X126865095Y-34329714D01*
X121753334Y-43156143D02*
X121705715Y-43203762D01*
X121562858Y-43251381D01*
X121467620Y-43251381D01*
X121324762Y-43203762D01*
X121229524Y-43108524D01*
X121181905Y-43013286D01*
X121134286Y-42822810D01*
X121134286Y-42679952D01*
X121181905Y-42489476D01*
X121229524Y-42394238D01*
X121324762Y-42299000D01*
X121467620Y-42251381D01*
X121562858Y-42251381D01*
X121705715Y-42299000D01*
X121753334Y-42346619D01*
X122134286Y-42346619D02*
X122181905Y-42299000D01*
X122277143Y-42251381D01*
X122515239Y-42251381D01*
X122610477Y-42299000D01*
X122658096Y-42346619D01*
X122705715Y-42441857D01*
X122705715Y-42537095D01*
X122658096Y-42679952D01*
X122086667Y-43251381D01*
X122705715Y-43251381D01*
X132167334Y-31599143D02*
X132119715Y-31646762D01*
X131976858Y-31694381D01*
X131881620Y-31694381D01*
X131738762Y-31646762D01*
X131643524Y-31551524D01*
X131595905Y-31456286D01*
X131548286Y-31265810D01*
X131548286Y-31122952D01*
X131595905Y-30932476D01*
X131643524Y-30837238D01*
X131738762Y-30742000D01*
X131881620Y-30694381D01*
X131976858Y-30694381D01*
X132119715Y-30742000D01*
X132167334Y-30789619D01*
X132500667Y-30694381D02*
X133119715Y-30694381D01*
X132786381Y-31075333D01*
X132929239Y-31075333D01*
X133024477Y-31122952D01*
X133072096Y-31170571D01*
X133119715Y-31265810D01*
X133119715Y-31503905D01*
X133072096Y-31599143D01*
X133024477Y-31646762D01*
X132929239Y-31694381D01*
X132643524Y-31694381D01*
X132548286Y-31646762D01*
X132500667Y-31599143D01*
X130722810Y-34615381D02*
X130722810Y-33615381D01*
X131770429Y-34520143D02*
X131722810Y-34567762D01*
X131579953Y-34615381D01*
X131484715Y-34615381D01*
X131341857Y-34567762D01*
X131246619Y-34472524D01*
X131199000Y-34377286D01*
X131151381Y-34186810D01*
X131151381Y-34043952D01*
X131199000Y-33853476D01*
X131246619Y-33758238D01*
X131341857Y-33663000D01*
X131484715Y-33615381D01*
X131579953Y-33615381D01*
X131722810Y-33663000D01*
X131770429Y-33710619D01*
X132103762Y-33615381D02*
X132722810Y-33615381D01*
X132389476Y-33996333D01*
X132532334Y-33996333D01*
X132627572Y-34043952D01*
X132675191Y-34091571D01*
X132722810Y-34186810D01*
X132722810Y-34424905D01*
X132675191Y-34520143D01*
X132627572Y-34567762D01*
X132532334Y-34615381D01*
X132246619Y-34615381D01*
X132151381Y-34567762D01*
X132103762Y-34520143D01*
D11*
X125554619Y-42569190D02*
X125506238Y-42545000D01*
X125457857Y-42496619D01*
X125385286Y-42424048D01*
X125336905Y-42399857D01*
X125288524Y-42399857D01*
X125312714Y-42520810D02*
X125264333Y-42496619D01*
X125215952Y-42448238D01*
X125191762Y-42351476D01*
X125191762Y-42182143D01*
X125215952Y-42085381D01*
X125264333Y-42037000D01*
X125312714Y-42012810D01*
X125409476Y-42012810D01*
X125457857Y-42037000D01*
X125506238Y-42085381D01*
X125530429Y-42182143D01*
X125530429Y-42351476D01*
X125506238Y-42448238D01*
X125457857Y-42496619D01*
X125409476Y-42520810D01*
X125312714Y-42520810D01*
X126014238Y-42520810D02*
X125723952Y-42520810D01*
X125869095Y-42520810D02*
X125869095Y-42012810D01*
X125820714Y-42085381D01*
X125772333Y-42133762D01*
X125723952Y-42157952D01*
D14*
X137350987Y-35389950D02*
X137184320Y-35151855D01*
X137065273Y-35389950D02*
X137065273Y-34889950D01*
X137255749Y-34889950D01*
X137303368Y-34913760D01*
X137327177Y-34937570D01*
X137350987Y-34985189D01*
X137350987Y-35056617D01*
X137327177Y-35104236D01*
X137303368Y-35128046D01*
X137255749Y-35151855D01*
X137065273Y-35151855D01*
X137827177Y-35389950D02*
X137541463Y-35389950D01*
X137684320Y-35389950D02*
X137684320Y-34889950D01*
X137636701Y-34961379D01*
X137589082Y-35008998D01*
X137541463Y-35032808D01*
X138600667Y-36294190D02*
X138434000Y-36056095D01*
X138314953Y-36294190D02*
X138314953Y-35794190D01*
X138505429Y-35794190D01*
X138553048Y-35818000D01*
X138576857Y-35841810D01*
X138600667Y-35889429D01*
X138600667Y-35960857D01*
X138576857Y-36008476D01*
X138553048Y-36032286D01*
X138505429Y-36056095D01*
X138314953Y-36056095D01*
X138791143Y-35841810D02*
X138814953Y-35818000D01*
X138862572Y-35794190D01*
X138981619Y-35794190D01*
X139029238Y-35818000D01*
X139053048Y-35841810D01*
X139076857Y-35889429D01*
X139076857Y-35937048D01*
X139053048Y-36008476D01*
X138767334Y-36294190D01*
X139076857Y-36294190D01*
X139804627Y-35420430D02*
X139637960Y-35182335D01*
X139518913Y-35420430D02*
X139518913Y-34920430D01*
X139709389Y-34920430D01*
X139757008Y-34944240D01*
X139780817Y-34968050D01*
X139804627Y-35015669D01*
X139804627Y-35087097D01*
X139780817Y-35134716D01*
X139757008Y-35158526D01*
X139709389Y-35182335D01*
X139518913Y-35182335D01*
X139971294Y-34920430D02*
X140280817Y-34920430D01*
X140114151Y-35110907D01*
X140185579Y-35110907D01*
X140233198Y-35134716D01*
X140257008Y-35158526D01*
X140280817Y-35206145D01*
X140280817Y-35325192D01*
X140257008Y-35372811D01*
X140233198Y-35396621D01*
X140185579Y-35420430D01*
X140042722Y-35420430D01*
X139995103Y-35396621D01*
X139971294Y-35372811D01*
X141140667Y-36294190D02*
X140974000Y-36056095D01*
X140854953Y-36294190D02*
X140854953Y-35794190D01*
X141045429Y-35794190D01*
X141093048Y-35818000D01*
X141116857Y-35841810D01*
X141140667Y-35889429D01*
X141140667Y-35960857D01*
X141116857Y-36008476D01*
X141093048Y-36032286D01*
X141045429Y-36056095D01*
X140854953Y-36056095D01*
X141569238Y-35960857D02*
X141569238Y-36294190D01*
X141450191Y-35770381D02*
X141331143Y-36127524D01*
X141640667Y-36127524D01*
M02*
