G04 #@! TF.FileFunction,Legend,Bot*
%FSLAX46Y46*%
G04 Gerber Fmt 4.6, Leading zero omitted, Abs format (unit mm)*
G04 Created by KiCad (PCBNEW (2014-12-04 BZR 5312)-product) date 4/25/2015 1:25:45 PM*
%MOMM*%
G01*
G04 APERTURE LIST*
%ADD10C,0.100000*%
%ADD11C,0.190500*%
%ADD12C,0.300000*%
G04 APERTURE END LIST*
D10*
D11*
X136482666Y-34861500D02*
X136270999Y-35454167D01*
X136059333Y-34861500D01*
X135382000Y-35411833D02*
X135466666Y-35454167D01*
X135636000Y-35454167D01*
X135720666Y-35411833D01*
X135763000Y-35327167D01*
X135763000Y-34988500D01*
X135720666Y-34903833D01*
X135636000Y-34861500D01*
X135466666Y-34861500D01*
X135382000Y-34903833D01*
X135339666Y-34988500D01*
X135339666Y-35073167D01*
X135763000Y-35157833D01*
X134958666Y-35454167D02*
X134958666Y-34861500D01*
X134958666Y-35030833D02*
X134916333Y-34946167D01*
X134874000Y-34903833D01*
X134789333Y-34861500D01*
X134704666Y-34861500D01*
X134450667Y-35411833D02*
X134366000Y-35454167D01*
X134196667Y-35454167D01*
X134112000Y-35411833D01*
X134069667Y-35327167D01*
X134069667Y-35284833D01*
X134112000Y-35200167D01*
X134196667Y-35157833D01*
X134323667Y-35157833D01*
X134408333Y-35115500D01*
X134450667Y-35030833D01*
X134450667Y-34988500D01*
X134408333Y-34903833D01*
X134323667Y-34861500D01*
X134196667Y-34861500D01*
X134112000Y-34903833D01*
X133688666Y-35454167D02*
X133688666Y-34861500D01*
X133688666Y-34565167D02*
X133731000Y-34607500D01*
X133688666Y-34649833D01*
X133646333Y-34607500D01*
X133688666Y-34565167D01*
X133688666Y-34649833D01*
X133138333Y-35454167D02*
X133223000Y-35411833D01*
X133265333Y-35369500D01*
X133307667Y-35284833D01*
X133307667Y-35030833D01*
X133265333Y-34946167D01*
X133223000Y-34903833D01*
X133138333Y-34861500D01*
X133011333Y-34861500D01*
X132926667Y-34903833D01*
X132884333Y-34946167D01*
X132842000Y-35030833D01*
X132842000Y-35284833D01*
X132884333Y-35369500D01*
X132926667Y-35411833D01*
X133011333Y-35454167D01*
X133138333Y-35454167D01*
X132461000Y-34861500D02*
X132461000Y-35454167D01*
X132461000Y-34946167D02*
X132418667Y-34903833D01*
X132334000Y-34861500D01*
X132207000Y-34861500D01*
X132122334Y-34903833D01*
X132080000Y-34988500D01*
X132080000Y-35454167D01*
X130810001Y-34565167D02*
X130725334Y-34565167D01*
X130640668Y-34607500D01*
X130598334Y-34649833D01*
X130556001Y-34734500D01*
X130513668Y-34903833D01*
X130513668Y-35115500D01*
X130556001Y-35284833D01*
X130598334Y-35369500D01*
X130640668Y-35411833D01*
X130725334Y-35454167D01*
X130810001Y-35454167D01*
X130894668Y-35411833D01*
X130937001Y-35369500D01*
X130979334Y-35284833D01*
X131021668Y-35115500D01*
X131021668Y-34903833D01*
X130979334Y-34734500D01*
X130937001Y-34649833D01*
X130894668Y-34607500D01*
X130810001Y-34565167D01*
X130132667Y-35369500D02*
X130090334Y-35411833D01*
X130132667Y-35454167D01*
X130175001Y-35411833D01*
X130132667Y-35369500D01*
X130132667Y-35454167D01*
X129751668Y-34649833D02*
X129709334Y-34607500D01*
X129624668Y-34565167D01*
X129413001Y-34565167D01*
X129328334Y-34607500D01*
X129286001Y-34649833D01*
X129243668Y-34734500D01*
X129243668Y-34819167D01*
X129286001Y-34946167D01*
X129794001Y-35454167D01*
X129243668Y-35454167D01*
D12*
X136266286Y-33270000D02*
X135552000Y-33270000D01*
X136409143Y-33698571D02*
X135909143Y-32198571D01*
X135409143Y-33698571D01*
X134909143Y-33698571D02*
X134909143Y-32198571D01*
X134409143Y-33270000D01*
X133909143Y-32198571D01*
X133909143Y-33698571D01*
X132337714Y-33698571D02*
X132837714Y-32984286D01*
X133194857Y-33698571D02*
X133194857Y-32198571D01*
X132623429Y-32198571D01*
X132480571Y-32270000D01*
X132409143Y-32341429D01*
X132337714Y-32484286D01*
X132337714Y-32698571D01*
X132409143Y-32841429D01*
X132480571Y-32912857D01*
X132623429Y-32984286D01*
X133194857Y-32984286D01*
X130837714Y-33698571D02*
X131337714Y-32984286D01*
X131694857Y-33698571D02*
X131694857Y-32198571D01*
X131123429Y-32198571D01*
X130980571Y-32270000D01*
X130909143Y-32341429D01*
X130837714Y-32484286D01*
X130837714Y-32698571D01*
X130909143Y-32841429D01*
X130980571Y-32912857D01*
X131123429Y-32984286D01*
X131694857Y-32984286D01*
X129052000Y-32698571D02*
X129052000Y-33698571D01*
X129052000Y-32841429D02*
X128980572Y-32770000D01*
X128837714Y-32698571D01*
X128623429Y-32698571D01*
X128480572Y-32770000D01*
X128409143Y-32912857D01*
X128409143Y-33698571D01*
X127480571Y-33698571D02*
X127623429Y-33627143D01*
X127694857Y-33555714D01*
X127766286Y-33412857D01*
X127766286Y-32984286D01*
X127694857Y-32841429D01*
X127623429Y-32770000D01*
X127480571Y-32698571D01*
X127266286Y-32698571D01*
X127123429Y-32770000D01*
X127052000Y-32841429D01*
X126980571Y-32984286D01*
X126980571Y-33412857D01*
X127052000Y-33555714D01*
X127123429Y-33627143D01*
X127266286Y-33698571D01*
X127480571Y-33698571D01*
X125694857Y-33698571D02*
X125694857Y-32198571D01*
X125694857Y-33627143D02*
X125837714Y-33698571D01*
X126123428Y-33698571D01*
X126266286Y-33627143D01*
X126337714Y-33555714D01*
X126409143Y-33412857D01*
X126409143Y-32984286D01*
X126337714Y-32841429D01*
X126266286Y-32770000D01*
X126123428Y-32698571D01*
X125837714Y-32698571D01*
X125694857Y-32770000D01*
X124409143Y-33627143D02*
X124552000Y-33698571D01*
X124837714Y-33698571D01*
X124980571Y-33627143D01*
X125052000Y-33484286D01*
X125052000Y-32912857D01*
X124980571Y-32770000D01*
X124837714Y-32698571D01*
X124552000Y-32698571D01*
X124409143Y-32770000D01*
X124337714Y-32912857D01*
X124337714Y-33055714D01*
X125052000Y-33198571D01*
M02*
