G04 #@! TF.FileFunction,Soldermask,Bot*
%FSLAX46Y46*%
G04 Gerber Fmt 4.6, Leading zero omitted, Abs format (unit mm)*
G04 Created by KiCad (PCBNEW (2014-12-04 BZR 5312)-product) date 4/7/2015 9:57:59 PM*
%MOMM*%
G01*
G04 APERTURE LIST*
%ADD10C,0.100000*%
%ADD11C,1.455600*%
%ADD12C,1.100000*%
G04 APERTURE END LIST*
D10*
D11*
X131953000Y-46101000D03*
X130683000Y-46101000D03*
D12*
X122809000Y-46101000D03*
X121539000Y-46101000D03*
X141224000Y-39751000D03*
X139954000Y-39751000D03*
X138684000Y-39751000D03*
X137414000Y-39751000D03*
X137414000Y-41021000D03*
X137414000Y-42291000D03*
X137414000Y-43561000D03*
X137414000Y-44831000D03*
X137414000Y-46101000D03*
X138684000Y-41021000D03*
X138684000Y-42291000D03*
X138684000Y-43561000D03*
X138684000Y-44831000D03*
X138684000Y-46101000D03*
X139954000Y-41021000D03*
X139954000Y-42291000D03*
X139954000Y-43561000D03*
X139954000Y-44831000D03*
X139954000Y-46101000D03*
X141224000Y-41021000D03*
X141224000Y-42291000D03*
X141224000Y-43561000D03*
X141224000Y-44831000D03*
X141224000Y-46101000D03*
X137414000Y-31496000D03*
X138684000Y-31496000D03*
X139954000Y-31496000D03*
X141224000Y-31496000D03*
X128651000Y-43434000D03*
X135001000Y-43434000D03*
X133731000Y-43434000D03*
X132461000Y-43434000D03*
X131191000Y-43434000D03*
X129921000Y-43434000D03*
X125476000Y-46101000D03*
X126746000Y-46101000D03*
X128016000Y-46101000D03*
M02*
