G04 #@! TF.FileFunction,Soldermask,Top*
%FSLAX46Y46*%
G04 Gerber Fmt 4.6, Leading zero omitted, Abs format (unit mm)*
G04 Created by KiCad (PCBNEW (2014-12-04 BZR 5312)-product) date 4/25/2015 1:25:45 PM*
%MOMM*%
G01*
G04 APERTURE LIST*
%ADD10C,0.100000*%
%ADD11R,0.750000X0.800000*%
%ADD12R,0.800000X0.750000*%
%ADD13C,1.100000*%
%ADD14R,0.600000X2.700000*%
%ADD15R,1.500000X0.600000*%
%ADD16R,0.800100X0.800100*%
%ADD17R,1.727200X2.032000*%
%ADD18O,1.727200X2.032000*%
%ADD19R,0.900000X0.500000*%
G04 APERTURE END LIST*
D10*
D11*
X127127000Y-33008000D03*
X127127000Y-31508000D03*
D12*
X122797000Y-41148000D03*
X121297000Y-41148000D03*
X129044000Y-31115000D03*
X130544000Y-31115000D03*
D13*
X134747000Y-46101000D03*
X133477000Y-46101000D03*
X121412000Y-44704000D03*
X121412000Y-43434000D03*
D14*
X125349000Y-32512000D03*
X124079000Y-32512000D03*
X122809000Y-32512000D03*
X121539000Y-32512000D03*
X125349000Y-37812000D03*
X124079000Y-37792000D03*
X122809000Y-37792000D03*
X121539000Y-37792000D03*
D15*
X129126000Y-33147000D03*
X129126000Y-34417000D03*
X129126000Y-35687000D03*
X129126000Y-36957000D03*
X129126000Y-38227000D03*
X129126000Y-39497000D03*
X129126000Y-40767000D03*
X134526000Y-40767000D03*
X134526000Y-39497000D03*
X134526000Y-38227000D03*
X134526000Y-36957000D03*
X134526000Y-35687000D03*
X134526000Y-34417000D03*
X134526000Y-33147000D03*
D16*
X124653000Y-43164760D03*
X126553000Y-43164760D03*
X125603000Y-41165780D03*
D13*
X128651000Y-43434000D03*
X135001000Y-43434000D03*
X133731000Y-43434000D03*
X132461000Y-43434000D03*
X131191000Y-43434000D03*
X129921000Y-43434000D03*
X134747000Y-48895000D03*
X133477000Y-48895000D03*
X121412000Y-48641000D03*
X121412000Y-47371000D03*
X141224000Y-42164000D03*
X139954000Y-42164000D03*
X138684000Y-42164000D03*
X137414000Y-42164000D03*
X137414000Y-44704000D03*
X137414000Y-47244000D03*
X137414000Y-49784000D03*
X138684000Y-44704000D03*
X138684000Y-47244000D03*
X138684000Y-49784000D03*
X139954000Y-44704000D03*
X139954000Y-47244000D03*
X139954000Y-49784000D03*
X141224000Y-44704000D03*
X141224000Y-47244000D03*
X141224000Y-49784000D03*
D17*
X130175000Y-48641000D03*
D18*
X127635000Y-48641000D03*
X125095000Y-48641000D03*
D13*
X138049000Y-34798000D03*
X139319000Y-34798000D03*
X140589000Y-34798000D03*
X138049000Y-32131000D03*
X139319000Y-32131000D03*
X140589000Y-32131000D03*
D19*
X137033000Y-40120000D03*
X137033000Y-38620000D03*
X138430000Y-40120000D03*
X138430000Y-38620000D03*
X139827000Y-40120000D03*
X139827000Y-38620000D03*
X141224000Y-40120000D03*
X141224000Y-38620000D03*
M02*
