M48
;DRILL file {kicad (2014-12-04 BZR 5312)-product} date 4/7/2015 12:39:28 PM
;FORMAT={-:-/ absolute / inch / decimal}
FMAT,2
INCH,TZ
T1C0.013
T2C0.017
T3C0.026
%
G90
G05
M72
T1
X5.025Y-1.465
X5.0252Y-1.7606
X5.13Y-1.65
X5.185Y-1.59
X5.215Y-1.41
X5.35Y-1.4932
X5.41Y-1.41
X5.51Y-1.42
T2
X4.79Y-1.4
X5.015Y-1.195
X5.27Y-1.24
T3
X4.785Y-1.815
X4.835Y-1.815
X4.94Y-1.815
X4.99Y-1.815
X5.04Y-1.815
X5.065Y-1.71
X5.115Y-1.71
X5.145Y-1.815
X5.165Y-1.71
X5.195Y-1.815
X5.215Y-1.71
X5.265Y-1.71
X5.315Y-1.71
X5.41Y-1.24
X5.41Y-1.565
X5.41Y-1.615
X5.41Y-1.665
X5.41Y-1.715
X5.41Y-1.765
X5.41Y-1.815
X5.46Y-1.24
X5.46Y-1.565
X5.46Y-1.615
X5.46Y-1.665
X5.46Y-1.715
X5.46Y-1.765
X5.46Y-1.815
X5.51Y-1.24
X5.51Y-1.565
X5.51Y-1.615
X5.51Y-1.665
X5.51Y-1.715
X5.51Y-1.765
X5.51Y-1.815
X5.56Y-1.24
X5.56Y-1.565
X5.56Y-1.615
X5.56Y-1.665
X5.56Y-1.715
X5.56Y-1.765
X5.56Y-1.815
T0
M30
