G04 #@! TF.FileFunction,Soldermask,Top*
%FSLAX46Y46*%
G04 Gerber Fmt 4.6, Leading zero omitted, Abs format (unit mm)*
G04 Created by KiCad (PCBNEW (2014-12-04 BZR 5312)-product) date 4/7/2015 9:57:59 PM*
%MOMM*%
G01*
G04 APERTURE LIST*
%ADD10C,0.100000*%
%ADD11R,0.750000X0.800000*%
%ADD12R,0.800000X0.750000*%
%ADD13C,1.455600*%
%ADD14C,1.100000*%
%ADD15R,0.600000X2.700000*%
%ADD16R,1.500000X0.600000*%
%ADD17R,0.800100X0.800100*%
%ADD18R,0.600000X0.400000*%
G04 APERTURE END LIST*
D10*
D11*
X127127000Y-33008000D03*
X127127000Y-31508000D03*
D12*
X122797000Y-41148000D03*
X121297000Y-41148000D03*
X129044000Y-31115000D03*
X130544000Y-31115000D03*
D13*
X131953000Y-46101000D03*
X130683000Y-46101000D03*
D14*
X122809000Y-46101000D03*
X121539000Y-46101000D03*
X141224000Y-39751000D03*
X139954000Y-39751000D03*
X138684000Y-39751000D03*
X137414000Y-39751000D03*
X137414000Y-41021000D03*
X137414000Y-42291000D03*
X137414000Y-43561000D03*
X137414000Y-44831000D03*
X137414000Y-46101000D03*
X138684000Y-41021000D03*
X138684000Y-42291000D03*
X138684000Y-43561000D03*
X138684000Y-44831000D03*
X138684000Y-46101000D03*
X139954000Y-41021000D03*
X139954000Y-42291000D03*
X139954000Y-43561000D03*
X139954000Y-44831000D03*
X139954000Y-46101000D03*
X141224000Y-41021000D03*
X141224000Y-42291000D03*
X141224000Y-43561000D03*
X141224000Y-44831000D03*
X141224000Y-46101000D03*
X137414000Y-31496000D03*
X138684000Y-31496000D03*
X139954000Y-31496000D03*
X141224000Y-31496000D03*
D15*
X125349000Y-32512000D03*
X124079000Y-32512000D03*
X122809000Y-32512000D03*
X121539000Y-32512000D03*
X125349000Y-37812000D03*
X124079000Y-37792000D03*
X122809000Y-37792000D03*
X121539000Y-37792000D03*
D16*
X129126000Y-33147000D03*
X129126000Y-34417000D03*
X129126000Y-35687000D03*
X129126000Y-36957000D03*
X129126000Y-38227000D03*
X129126000Y-39497000D03*
X129126000Y-40767000D03*
X134526000Y-40767000D03*
X134526000Y-39497000D03*
X134526000Y-38227000D03*
X134526000Y-36957000D03*
X134526000Y-35687000D03*
X134526000Y-34417000D03*
X134526000Y-33147000D03*
D17*
X124653000Y-43164760D03*
X126553000Y-43164760D03*
X125603000Y-41165780D03*
D14*
X128651000Y-43434000D03*
X135001000Y-43434000D03*
X133731000Y-43434000D03*
X132461000Y-43434000D03*
X131191000Y-43434000D03*
X129921000Y-43434000D03*
X125476000Y-46101000D03*
X126746000Y-46101000D03*
X128016000Y-46101000D03*
D18*
X137414000Y-37788000D03*
X137414000Y-36888000D03*
X138684000Y-37788000D03*
X138684000Y-36888000D03*
X139954000Y-37788000D03*
X139954000Y-36888000D03*
X141224000Y-37788000D03*
X141224000Y-36888000D03*
M02*
