G04 #@! TF.FileFunction,Legend,Top*
%FSLAX46Y46*%
G04 Gerber Fmt 4.6, Leading zero omitted, Abs format (unit mm)*
G04 Created by KiCad (PCBNEW (2014-12-04 BZR 5312)-product) date 4/25/2015 1:25:45 PM*
%MOMM*%
G01*
G04 APERTURE LIST*
%ADD10C,0.100000*%
%ADD11C,0.127000*%
%ADD12C,0.190500*%
%ADD13C,0.150000*%
G04 APERTURE END LIST*
D10*
D11*
X137335380Y-36787667D02*
X137577285Y-36787667D01*
X137286999Y-36932810D02*
X137456332Y-36424810D01*
X137625666Y-36932810D01*
X138061095Y-36932810D02*
X137770809Y-36932810D01*
X137915952Y-36932810D02*
X137915952Y-36424810D01*
X137867571Y-36497381D01*
X137819190Y-36545762D01*
X137770809Y-36569952D01*
X138931953Y-36449000D02*
X138883572Y-36424810D01*
X138811000Y-36424810D01*
X138738429Y-36449000D01*
X138690048Y-36497381D01*
X138665857Y-36545762D01*
X138641667Y-36642524D01*
X138641667Y-36715095D01*
X138665857Y-36811857D01*
X138690048Y-36860238D01*
X138738429Y-36908619D01*
X138811000Y-36932810D01*
X138859381Y-36932810D01*
X138931953Y-36908619D01*
X138956143Y-36884429D01*
X138956143Y-36715095D01*
X138859381Y-36715095D01*
X139173857Y-36932810D02*
X139173857Y-36424810D01*
X139464143Y-36932810D01*
X139464143Y-36424810D01*
X139706047Y-36932810D02*
X139706047Y-36424810D01*
X139827000Y-36424810D01*
X139899571Y-36449000D01*
X139947952Y-36497381D01*
X139972143Y-36545762D01*
X139996333Y-36642524D01*
X139996333Y-36715095D01*
X139972143Y-36811857D01*
X139947952Y-36860238D01*
X139899571Y-36908619D01*
X139827000Y-36932810D01*
X139706047Y-36932810D01*
X140843000Y-36424810D02*
X140601095Y-36424810D01*
X140576905Y-36666714D01*
X140601095Y-36642524D01*
X140649476Y-36618333D01*
X140770429Y-36618333D01*
X140818810Y-36642524D01*
X140843000Y-36666714D01*
X140867191Y-36715095D01*
X140867191Y-36836048D01*
X140843000Y-36884429D01*
X140818810Y-36908619D01*
X140770429Y-36932810D01*
X140649476Y-36932810D01*
X140601095Y-36908619D01*
X140576905Y-36884429D01*
X141012334Y-36424810D02*
X141181667Y-36932810D01*
X141351001Y-36424810D01*
X123444000Y-43264667D02*
X123468190Y-43216286D01*
X123468190Y-43143714D01*
X123444000Y-43071143D01*
X123395619Y-43022762D01*
X123347238Y-42998571D01*
X123250476Y-42974381D01*
X123177905Y-42974381D01*
X123081143Y-42998571D01*
X123032762Y-43022762D01*
X122984381Y-43071143D01*
X122960190Y-43143714D01*
X122960190Y-43192095D01*
X122984381Y-43264667D01*
X123008571Y-43288857D01*
X123177905Y-43288857D01*
X123177905Y-43192095D01*
X122960190Y-43506571D02*
X123468190Y-43506571D01*
X122960190Y-43796857D01*
X123468190Y-43796857D01*
X122960190Y-44038761D02*
X123468190Y-44038761D01*
X123468190Y-44159714D01*
X123444000Y-44232285D01*
X123395619Y-44280666D01*
X123347238Y-44304857D01*
X123250476Y-44329047D01*
X123177905Y-44329047D01*
X123081143Y-44304857D01*
X123032762Y-44280666D01*
X122984381Y-44232285D01*
X122960190Y-44159714D01*
X122960190Y-44038761D01*
X123468190Y-44861238D02*
X122960190Y-45030571D01*
X123468190Y-45199905D01*
X122960190Y-45369238D02*
X123468190Y-45369238D01*
X122960190Y-45611143D02*
X123468190Y-45611143D01*
X122960190Y-45901429D01*
X123468190Y-45901429D01*
X123317000Y-46947667D02*
X123341190Y-46899286D01*
X123341190Y-46826714D01*
X123317000Y-46754143D01*
X123268619Y-46705762D01*
X123220238Y-46681571D01*
X123123476Y-46657381D01*
X123050905Y-46657381D01*
X122954143Y-46681571D01*
X122905762Y-46705762D01*
X122857381Y-46754143D01*
X122833190Y-46826714D01*
X122833190Y-46875095D01*
X122857381Y-46947667D01*
X122881571Y-46971857D01*
X123050905Y-46971857D01*
X123050905Y-46875095D01*
X122833190Y-47189571D02*
X123341190Y-47189571D01*
X122833190Y-47479857D01*
X123341190Y-47479857D01*
X122833190Y-47721761D02*
X123341190Y-47721761D01*
X123341190Y-47842714D01*
X123317000Y-47915285D01*
X123268619Y-47963666D01*
X123220238Y-47987857D01*
X123123476Y-48012047D01*
X123050905Y-48012047D01*
X122954143Y-47987857D01*
X122905762Y-47963666D01*
X122857381Y-47915285D01*
X122833190Y-47842714D01*
X122833190Y-47721761D01*
X123341190Y-48544238D02*
X122833190Y-48713571D01*
X123341190Y-48882905D01*
X122833190Y-49052238D02*
X123341190Y-49052238D01*
X122833190Y-49294143D02*
X123341190Y-49294143D01*
X122833190Y-49584429D01*
X123341190Y-49584429D01*
X124568858Y-46681571D02*
X125342953Y-46681571D01*
X124955905Y-47068619D02*
X124955905Y-46294524D01*
X126552477Y-47020238D02*
X126697620Y-47068619D01*
X126939524Y-47068619D01*
X127036286Y-47020238D01*
X127084667Y-46971857D01*
X127133048Y-46875095D01*
X127133048Y-46778333D01*
X127084667Y-46681571D01*
X127036286Y-46633190D01*
X126939524Y-46584810D01*
X126746001Y-46536429D01*
X126649239Y-46488048D01*
X126600858Y-46439667D01*
X126552477Y-46342905D01*
X126552477Y-46246143D01*
X126600858Y-46149381D01*
X126649239Y-46101000D01*
X126746001Y-46052619D01*
X126987905Y-46052619D01*
X127133048Y-46101000D01*
X128874762Y-46101000D02*
X128778000Y-46052619D01*
X128632857Y-46052619D01*
X128487715Y-46101000D01*
X128390953Y-46197762D01*
X128342572Y-46294524D01*
X128294191Y-46488048D01*
X128294191Y-46633190D01*
X128342572Y-46826714D01*
X128390953Y-46923476D01*
X128487715Y-47020238D01*
X128632857Y-47068619D01*
X128729619Y-47068619D01*
X128874762Y-47020238D01*
X128923143Y-46971857D01*
X128923143Y-46633190D01*
X128729619Y-46633190D01*
X129358572Y-47068619D02*
X129358572Y-46052619D01*
X129939143Y-47068619D01*
X129939143Y-46052619D01*
X130422953Y-47068619D02*
X130422953Y-46052619D01*
X130664858Y-46052619D01*
X130810000Y-46101000D01*
X130906762Y-46197762D01*
X130955143Y-46294524D01*
X131003524Y-46488048D01*
X131003524Y-46633190D01*
X130955143Y-46826714D01*
X130906762Y-46923476D01*
X130810000Y-47020238D01*
X130664858Y-47068619D01*
X130422953Y-47068619D01*
X132600095Y-50116619D02*
X132672666Y-50140810D01*
X132793619Y-50140810D01*
X132842000Y-50116619D01*
X132866190Y-50092429D01*
X132890381Y-50044048D01*
X132890381Y-49995667D01*
X132866190Y-49947286D01*
X132842000Y-49923095D01*
X132793619Y-49898905D01*
X132696857Y-49874714D01*
X132648476Y-49850524D01*
X132624285Y-49826333D01*
X132600095Y-49777952D01*
X132600095Y-49729571D01*
X132624285Y-49681190D01*
X132648476Y-49657000D01*
X132696857Y-49632810D01*
X132817809Y-49632810D01*
X132890381Y-49657000D01*
X133398381Y-50092429D02*
X133374191Y-50116619D01*
X133301619Y-50140810D01*
X133253238Y-50140810D01*
X133180667Y-50116619D01*
X133132286Y-50068238D01*
X133108095Y-50019857D01*
X133083905Y-49923095D01*
X133083905Y-49850524D01*
X133108095Y-49753762D01*
X133132286Y-49705381D01*
X133180667Y-49657000D01*
X133253238Y-49632810D01*
X133301619Y-49632810D01*
X133374191Y-49657000D01*
X133398381Y-49681190D01*
X133858000Y-50140810D02*
X133616095Y-50140810D01*
X133616095Y-49632810D01*
X134390191Y-50116619D02*
X134462762Y-50140810D01*
X134583715Y-50140810D01*
X134632096Y-50116619D01*
X134656286Y-50092429D01*
X134680477Y-50044048D01*
X134680477Y-49995667D01*
X134656286Y-49947286D01*
X134632096Y-49923095D01*
X134583715Y-49898905D01*
X134486953Y-49874714D01*
X134438572Y-49850524D01*
X134414381Y-49826333D01*
X134390191Y-49777952D01*
X134390191Y-49729571D01*
X134414381Y-49681190D01*
X134438572Y-49657000D01*
X134486953Y-49632810D01*
X134607905Y-49632810D01*
X134680477Y-49657000D01*
X134898191Y-50140810D02*
X134898191Y-49632810D01*
X135019144Y-49632810D01*
X135091715Y-49657000D01*
X135140096Y-49705381D01*
X135164287Y-49753762D01*
X135188477Y-49850524D01*
X135188477Y-49923095D01*
X135164287Y-50019857D01*
X135140096Y-50068238D01*
X135091715Y-50116619D01*
X135019144Y-50140810D01*
X134898191Y-50140810D01*
X135382001Y-49995667D02*
X135623906Y-49995667D01*
X135333620Y-50140810D02*
X135502953Y-49632810D01*
X135672287Y-50140810D01*
X137462380Y-30310667D02*
X137704285Y-30310667D01*
X137413999Y-30455810D02*
X137583332Y-29947810D01*
X137752666Y-30455810D01*
X138018761Y-29947810D02*
X138067142Y-29947810D01*
X138115523Y-29972000D01*
X138139714Y-29996190D01*
X138163904Y-30044571D01*
X138188095Y-30141333D01*
X138188095Y-30262286D01*
X138163904Y-30359048D01*
X138139714Y-30407429D01*
X138115523Y-30431619D01*
X138067142Y-30455810D01*
X138018761Y-30455810D01*
X137970380Y-30431619D01*
X137946190Y-30407429D01*
X137921999Y-30359048D01*
X137897809Y-30262286D01*
X137897809Y-30141333D01*
X137921999Y-30044571D01*
X137946190Y-29996190D01*
X137970380Y-29972000D01*
X138018761Y-29947810D01*
X139058953Y-29972000D02*
X139010572Y-29947810D01*
X138938000Y-29947810D01*
X138865429Y-29972000D01*
X138817048Y-30020381D01*
X138792857Y-30068762D01*
X138768667Y-30165524D01*
X138768667Y-30238095D01*
X138792857Y-30334857D01*
X138817048Y-30383238D01*
X138865429Y-30431619D01*
X138938000Y-30455810D01*
X138986381Y-30455810D01*
X139058953Y-30431619D01*
X139083143Y-30407429D01*
X139083143Y-30238095D01*
X138986381Y-30238095D01*
X139300857Y-30455810D02*
X139300857Y-29947810D01*
X139591143Y-30455810D01*
X139591143Y-29947810D01*
X139833047Y-30455810D02*
X139833047Y-29947810D01*
X139954000Y-29947810D01*
X140026571Y-29972000D01*
X140074952Y-30020381D01*
X140099143Y-30068762D01*
X140123333Y-30165524D01*
X140123333Y-30238095D01*
X140099143Y-30334857D01*
X140074952Y-30383238D01*
X140026571Y-30431619D01*
X139954000Y-30455810D01*
X139833047Y-30455810D01*
X140970000Y-29947810D02*
X140728095Y-29947810D01*
X140703905Y-30189714D01*
X140728095Y-30165524D01*
X140776476Y-30141333D01*
X140897429Y-30141333D01*
X140945810Y-30165524D01*
X140970000Y-30189714D01*
X140994191Y-30238095D01*
X140994191Y-30359048D01*
X140970000Y-30407429D01*
X140945810Y-30431619D01*
X140897429Y-30455810D01*
X140776476Y-30455810D01*
X140728095Y-30431619D01*
X140703905Y-30407429D01*
X141139334Y-29947810D02*
X141308667Y-30455810D01*
X141478001Y-29947810D01*
D12*
X122083285Y-34495619D02*
X122337285Y-35511619D01*
X122591285Y-34495619D01*
X123280714Y-35511619D02*
X123026714Y-35027810D01*
X122845286Y-35511619D02*
X122845286Y-34495619D01*
X123135571Y-34495619D01*
X123208143Y-34544000D01*
X123244428Y-34592381D01*
X123280714Y-34689143D01*
X123280714Y-34834286D01*
X123244428Y-34931048D01*
X123208143Y-34979429D01*
X123135571Y-35027810D01*
X122845286Y-35027810D01*
X123607286Y-34979429D02*
X123861286Y-34979429D01*
X123970143Y-35511619D02*
X123607286Y-35511619D01*
X123607286Y-34495619D01*
X123970143Y-34495619D01*
X124695857Y-34544000D02*
X124623286Y-34495619D01*
X124514429Y-34495619D01*
X124405572Y-34544000D01*
X124333000Y-34640762D01*
X124296715Y-34737524D01*
X124260429Y-34931048D01*
X124260429Y-35076190D01*
X124296715Y-35269714D01*
X124333000Y-35366476D01*
X124405572Y-35463238D01*
X124514429Y-35511619D01*
X124587000Y-35511619D01*
X124695857Y-35463238D01*
X124732143Y-35414857D01*
X124732143Y-35076190D01*
X124587000Y-35076190D01*
D11*
X136875760Y-43663810D02*
X136875760Y-43155810D01*
X136996713Y-43155810D01*
X137069284Y-43180000D01*
X137117665Y-43228381D01*
X137141856Y-43276762D01*
X137166046Y-43373524D01*
X137166046Y-43446095D01*
X137141856Y-43542857D01*
X137117665Y-43591238D01*
X137069284Y-43639619D01*
X136996713Y-43663810D01*
X136875760Y-43663810D01*
X137335379Y-43155810D02*
X137649856Y-43155810D01*
X137480522Y-43349333D01*
X137553094Y-43349333D01*
X137601475Y-43373524D01*
X137625665Y-43397714D01*
X137649856Y-43446095D01*
X137649856Y-43567048D01*
X137625665Y-43615429D01*
X137601475Y-43639619D01*
X137553094Y-43663810D01*
X137407951Y-43663810D01*
X137359570Y-43639619D01*
X137335379Y-43615429D01*
X138254618Y-43663810D02*
X138254618Y-43155810D01*
X138375571Y-43155810D01*
X138448142Y-43180000D01*
X138496523Y-43228381D01*
X138520714Y-43276762D01*
X138544904Y-43373524D01*
X138544904Y-43446095D01*
X138520714Y-43542857D01*
X138496523Y-43591238D01*
X138448142Y-43639619D01*
X138375571Y-43663810D01*
X138254618Y-43663810D01*
X139004523Y-43155810D02*
X138762618Y-43155810D01*
X138738428Y-43397714D01*
X138762618Y-43373524D01*
X138810999Y-43349333D01*
X138931952Y-43349333D01*
X138980333Y-43373524D01*
X139004523Y-43397714D01*
X139028714Y-43446095D01*
X139028714Y-43567048D01*
X139004523Y-43615429D01*
X138980333Y-43639619D01*
X138931952Y-43663810D01*
X138810999Y-43663810D01*
X138762618Y-43639619D01*
X138738428Y-43615429D01*
X139633476Y-43663810D02*
X139633476Y-43155810D01*
X139754429Y-43155810D01*
X139827000Y-43180000D01*
X139875381Y-43228381D01*
X139899572Y-43276762D01*
X139923762Y-43373524D01*
X139923762Y-43446095D01*
X139899572Y-43542857D01*
X139875381Y-43591238D01*
X139827000Y-43639619D01*
X139754429Y-43663810D01*
X139633476Y-43663810D01*
X140093095Y-43155810D02*
X140431762Y-43155810D01*
X140214048Y-43663810D01*
X141012334Y-43663810D02*
X141012334Y-43155810D01*
X141133287Y-43155810D01*
X141205858Y-43180000D01*
X141254239Y-43228381D01*
X141278430Y-43276762D01*
X141302620Y-43373524D01*
X141302620Y-43446095D01*
X141278430Y-43542857D01*
X141254239Y-43591238D01*
X141205858Y-43639619D01*
X141133287Y-43663810D01*
X141012334Y-43663810D01*
X141592906Y-43373524D02*
X141544525Y-43349333D01*
X141520334Y-43325143D01*
X141496144Y-43276762D01*
X141496144Y-43252571D01*
X141520334Y-43204190D01*
X141544525Y-43180000D01*
X141592906Y-43155810D01*
X141689668Y-43155810D01*
X141738049Y-43180000D01*
X141762239Y-43204190D01*
X141786430Y-43252571D01*
X141786430Y-43276762D01*
X141762239Y-43325143D01*
X141738049Y-43349333D01*
X141689668Y-43373524D01*
X141592906Y-43373524D01*
X141544525Y-43397714D01*
X141520334Y-43421905D01*
X141496144Y-43470286D01*
X141496144Y-43567048D01*
X141520334Y-43615429D01*
X141544525Y-43639619D01*
X141592906Y-43663810D01*
X141689668Y-43663810D01*
X141738049Y-43639619D01*
X141762239Y-43615429D01*
X141786430Y-43567048D01*
X141786430Y-43470286D01*
X141762239Y-43421905D01*
X141738049Y-43397714D01*
X141689668Y-43373524D01*
D13*
X126527000Y-32608000D02*
X126527000Y-31908000D01*
X127727000Y-31908000D02*
X127727000Y-32608000D01*
X122397000Y-41748000D02*
X121697000Y-41748000D01*
X121697000Y-40548000D02*
X122397000Y-40548000D01*
X129444000Y-30515000D02*
X130144000Y-30515000D01*
X130144000Y-31715000D02*
X129444000Y-31715000D01*
X136017000Y-47371000D02*
X136017000Y-44831000D01*
X136017000Y-44831000D02*
X132207000Y-44831000D01*
X132207000Y-44831000D02*
X132207000Y-47371000D01*
X132207000Y-47371000D02*
X136017000Y-47371000D01*
X120142000Y-45974000D02*
X122682000Y-45974000D01*
X122682000Y-45974000D02*
X122682000Y-42164000D01*
X122682000Y-42164000D02*
X120142000Y-42164000D01*
X120142000Y-42164000D02*
X120142000Y-45974000D01*
X126709555Y-30512000D02*
G75*
G03X126709555Y-30512000I-360555J0D01*
G01*
X126349000Y-40012000D02*
X126349000Y-30512000D01*
X126349000Y-30512000D02*
X120349000Y-30512000D01*
X120349000Y-30512000D02*
X120349000Y-40012000D01*
X120349000Y-40012000D02*
X126349000Y-40012000D01*
X129751000Y-32507000D02*
X129751000Y-32622000D01*
X133901000Y-32507000D02*
X133901000Y-32622000D01*
X133901000Y-41407000D02*
X133901000Y-41292000D01*
X129751000Y-41407000D02*
X129751000Y-41292000D01*
X129751000Y-32507000D02*
X133901000Y-32507000D01*
X129751000Y-41407000D02*
X133901000Y-41407000D01*
X129751000Y-32622000D02*
X128376000Y-32622000D01*
X126902160Y-41513760D02*
X126853900Y-41513760D01*
X124103180Y-42214800D02*
X124103180Y-41513760D01*
X124103180Y-41513760D02*
X124352100Y-41513760D01*
X126902160Y-41513760D02*
X127102820Y-41513760D01*
X127102820Y-41513760D02*
X127102820Y-42214800D01*
X128651000Y-44704000D02*
X127381000Y-44704000D01*
X127381000Y-44704000D02*
X127381000Y-42164000D01*
X127381000Y-42164000D02*
X128651000Y-42164000D01*
X136271000Y-44704000D02*
X128651000Y-44704000D01*
X128651000Y-42164000D02*
X136271000Y-42164000D01*
X136271000Y-42164000D02*
X136271000Y-44704000D01*
X136017000Y-50165000D02*
X136017000Y-47625000D01*
X136017000Y-47625000D02*
X132207000Y-47625000D01*
X132207000Y-47625000D02*
X132207000Y-50165000D01*
X132207000Y-50165000D02*
X136017000Y-50165000D01*
X120142000Y-49911000D02*
X122682000Y-49911000D01*
X122682000Y-49911000D02*
X122682000Y-46101000D01*
X122682000Y-46101000D02*
X120142000Y-46101000D01*
X120142000Y-46101000D02*
X120142000Y-49911000D01*
X142494000Y-49784000D02*
X142494000Y-51054000D01*
X142494000Y-51054000D02*
X136144000Y-51054000D01*
X136144000Y-51054000D02*
X136144000Y-49784000D01*
X142494000Y-49784000D02*
X142494000Y-40894000D01*
X142494000Y-40894000D02*
X136144000Y-40894000D01*
X136144000Y-40894000D02*
X136144000Y-49784000D01*
X130175000Y-50191000D02*
X131725000Y-50191000D01*
X131725000Y-50191000D02*
X131725000Y-47091000D01*
X131725000Y-47091000D02*
X130175000Y-47091000D01*
X128905000Y-49911000D02*
X123825000Y-49911000D01*
X123825000Y-49911000D02*
X123825000Y-47371000D01*
X123825000Y-47371000D02*
X128905000Y-47371000D01*
X128905000Y-47371000D02*
X128905000Y-49911000D01*
X136779000Y-33528000D02*
X141859000Y-33528000D01*
X141859000Y-33528000D02*
X141859000Y-36068000D01*
X141859000Y-36068000D02*
X136779000Y-36068000D01*
X136779000Y-36068000D02*
X136779000Y-33528000D01*
X136779000Y-30861000D02*
X141859000Y-30861000D01*
X141859000Y-30861000D02*
X141859000Y-33401000D01*
X141859000Y-33401000D02*
X136779000Y-33401000D01*
X136779000Y-33401000D02*
X136779000Y-30861000D01*
X137708000Y-38870000D02*
X137708000Y-39870000D01*
X136358000Y-39870000D02*
X136358000Y-38870000D01*
X139105000Y-38870000D02*
X139105000Y-39870000D01*
X137755000Y-39870000D02*
X137755000Y-38870000D01*
X140502000Y-38870000D02*
X140502000Y-39870000D01*
X139152000Y-39870000D02*
X139152000Y-38870000D01*
X141899000Y-38870000D02*
X141899000Y-39870000D01*
X140549000Y-39870000D02*
X140549000Y-38870000D01*
M02*
