M48
;DRILL file {kicad (2014-12-04 BZR 5312)-product} date 4/25/2015 1:25:47 PM
;FORMAT={-:-/ absolute / inch / decimal}
FMAT,2
INCH,TZ
T1C0.013
T2C0.017
T3C0.026
T4C0.040
%
G90
G05
M72
T1
X4.895Y-1.62
X5.025Y-1.465
X5.03Y-1.791
X5.065Y-1.765
X5.13Y-1.65
X5.185Y-1.59
X5.235Y-1.515
X5.35Y-1.52
X5.36Y-1.61
X5.435Y-1.49
T2
X4.79Y-1.4
X5.015Y-1.195
X5.27Y-1.24
T3
X4.78Y-1.71
X4.78Y-1.76
X4.78Y-1.865
X4.78Y-1.915
X5.065Y-1.71
X5.115Y-1.71
X5.165Y-1.71
X5.215Y-1.71
X5.255Y-1.815
X5.255Y-1.925
X5.265Y-1.71
X5.305Y-1.815
X5.305Y-1.925
X5.315Y-1.71
X5.41Y-1.66
X5.41Y-1.76
X5.41Y-1.86
X5.41Y-1.96
X5.435Y-1.265
X5.435Y-1.37
X5.46Y-1.66
X5.46Y-1.76
X5.46Y-1.86
X5.46Y-1.96
X5.485Y-1.265
X5.485Y-1.37
X5.51Y-1.66
X5.51Y-1.76
X5.51Y-1.86
X5.51Y-1.96
X5.535Y-1.265
X5.535Y-1.37
X5.56Y-1.66
X5.56Y-1.76
X5.56Y-1.86
X5.56Y-1.96
T4
X4.925Y-1.915
X5.025Y-1.915
X5.125Y-1.915
T0
M30
