G04 #@! TF.FileFunction,Profile,NP*
%FSLAX46Y46*%
G04 Gerber Fmt 4.6, Leading zero omitted, Abs format (unit mm)*
G04 Created by KiCad (PCBNEW (2014-12-04 BZR 5312)-product) date 4/7/2015 10:47:18 PM*
%MOMM*%
G01*
G04 APERTURE LIST*
%ADD10C,0.100000*%
G04 APERTURE END LIST*
D10*
X105918000Y-72644000D02*
X105918000Y-76200000D01*
X121158000Y-77470000D02*
X120650000Y-77470000D01*
X121158000Y-59944000D02*
X121158000Y-77470000D01*
X104902000Y-59944000D02*
X121158000Y-59944000D01*
X104902000Y-77470000D02*
X104902000Y-59944000D01*
X105410000Y-77470000D02*
X104902000Y-77470000D01*
X105918000Y-76200000D02*
X106934000Y-76200000D01*
X105918000Y-72644000D02*
X106934000Y-72644000D01*
X105918000Y-71374000D02*
X106934000Y-71374000D01*
X120142000Y-76200000D02*
X119126000Y-76200000D01*
X120142000Y-72644000D02*
X120142000Y-76200000D01*
X120142000Y-72644000D02*
X119126000Y-72644000D01*
X119126000Y-71374000D02*
X120142000Y-71374000D01*
X120142000Y-60960000D02*
X105918000Y-60960000D01*
X120142000Y-71374000D02*
X120142000Y-60960000D01*
X105918000Y-71374000D02*
X105918000Y-60960000D01*
X119126000Y-71374000D02*
X119126000Y-68326000D01*
X106934000Y-68326000D02*
X106934000Y-71374000D01*
X119126000Y-72644000D02*
X119126000Y-76200000D01*
X106934000Y-72644000D02*
X106934000Y-76200000D01*
X119126000Y-77470000D02*
X120650000Y-77470000D01*
X105410000Y-77470000D02*
X106934000Y-77470000D01*
X115824000Y-76200000D02*
X115824000Y-72517000D01*
X114681000Y-76200000D02*
X115824000Y-76200000D01*
X114681000Y-72517000D02*
X114681000Y-76200000D01*
X115824000Y-71374000D02*
X115824000Y-68326000D01*
X114681000Y-71374000D02*
X115824000Y-71374000D01*
X114681000Y-68326000D02*
X114681000Y-71374000D01*
X111379000Y-76200000D02*
X111379000Y-72517000D01*
X110236000Y-76200000D02*
X111379000Y-76200000D01*
X110236000Y-72517000D02*
X110236000Y-76200000D01*
X111379000Y-71374000D02*
X111379000Y-68199000D01*
X110236000Y-71374000D02*
X111379000Y-71374000D01*
X110236000Y-68199000D02*
X110236000Y-71374000D01*
X114681000Y-77470000D02*
X115824000Y-77470000D01*
X114681000Y-76200000D02*
X115824000Y-76200000D01*
X110236000Y-76200000D02*
X111379000Y-76200000D01*
X110236000Y-77470000D02*
X111379000Y-77470000D01*
X114681000Y-72517000D02*
X115824000Y-72517000D01*
X114681000Y-71374000D02*
X115824000Y-71374000D01*
X110236000Y-72517000D02*
X111379000Y-72517000D01*
X110236000Y-71374000D02*
X111379000Y-71374000D01*
X107950000Y-61976000D02*
X109347000Y-61976000D01*
X110236000Y-62865000D02*
X109347000Y-61976000D01*
X110236000Y-68326000D02*
X110236000Y-62865000D01*
X106934000Y-62992000D02*
X107950000Y-61976000D01*
X106934000Y-68326000D02*
X106934000Y-62992000D01*
X110236000Y-77470000D02*
X106934000Y-77470000D01*
X112395000Y-61976000D02*
X113792000Y-61976000D01*
X114681000Y-62865000D02*
X113792000Y-61976000D01*
X114681000Y-68326000D02*
X114681000Y-62865000D01*
X111379000Y-62992000D02*
X112395000Y-61976000D01*
X111379000Y-68326000D02*
X111379000Y-62992000D01*
X114681000Y-77470000D02*
X111379000Y-77470000D01*
X116840000Y-61976000D02*
X118237000Y-61976000D01*
X119126000Y-62865000D02*
X118237000Y-61976000D01*
X119126000Y-68326000D02*
X119126000Y-62865000D01*
X115824000Y-62992000D02*
X116840000Y-61976000D01*
X115824000Y-68326000D02*
X115824000Y-62992000D01*
X119126000Y-77470000D02*
X115824000Y-77470000D01*
M02*
