G04 #@! TF.FileFunction,Copper,L1,Top,Signal*
%FSLAX46Y46*%
G04 Gerber Fmt 4.6, Leading zero omitted, Abs format (unit mm)*
G04 Created by KiCad (PCBNEW (2014-12-04 BZR 5312)-product) date 4/7/2015 10:47:18 PM*
%MOMM*%
G01*
G04 APERTURE LIST*
%ADD10C,0.100000*%
%ADD11C,1.100000*%
%ADD12R,0.599440X0.398780*%
%ADD13C,0.330200*%
%ADD14C,0.508000*%
%ADD15C,0.203200*%
%ADD16C,0.254000*%
G04 APERTURE END LIST*
D10*
D11*
X108712000Y-76200000D03*
X108712000Y-74930000D03*
X108712000Y-73660000D03*
X108712000Y-72390000D03*
D12*
X108656120Y-64101980D03*
X108656120Y-63202820D03*
X108666280Y-65031620D03*
X108666280Y-65930780D03*
X108645960Y-66931540D03*
X108645960Y-67830700D03*
X113101120Y-64101980D03*
X113101120Y-63202820D03*
X113111280Y-65031620D03*
X113111280Y-65930780D03*
X113090960Y-66931540D03*
X113090960Y-67830700D03*
D11*
X113157000Y-76200000D03*
X113157000Y-74930000D03*
X113157000Y-73660000D03*
X113157000Y-72390000D03*
D12*
X117546120Y-64101980D03*
X117546120Y-63202820D03*
X117556280Y-65031620D03*
X117556280Y-65930780D03*
X117535960Y-66931540D03*
X117535960Y-67830700D03*
D11*
X117602000Y-76200000D03*
X117602000Y-74930000D03*
X117602000Y-73660000D03*
X117602000Y-72390000D03*
D13*
X110794800Y-76555600D03*
X110794800Y-77089000D03*
X110820200Y-71729600D03*
X110820200Y-72186800D03*
X115239800Y-71704200D03*
X115265200Y-72212200D03*
X115265200Y-76530200D03*
X115265200Y-77139800D03*
X119634000Y-71678800D03*
X119634000Y-72339200D03*
X119634000Y-76504800D03*
X119634000Y-77165200D03*
X106426000Y-71678800D03*
X106426000Y-72339200D03*
X106426000Y-76504800D03*
X106426000Y-77165200D03*
D14*
X117795040Y-71084440D03*
X113350040Y-71084440D03*
X108905040Y-71084440D03*
D15*
X117546120Y-63202820D02*
X117043200Y-63202820D01*
X117043200Y-63202820D02*
X116423429Y-63822591D01*
X116423429Y-63822591D02*
X116423429Y-75799246D01*
X116423429Y-75799246D02*
X116824183Y-76200000D01*
X116824183Y-76200000D02*
X117602000Y-76200000D01*
X113101120Y-63202820D02*
X112598200Y-63202820D01*
X112598200Y-63202820D02*
X111978429Y-63822591D01*
X111978429Y-63822591D02*
X111978429Y-75799246D01*
X111978429Y-75799246D02*
X112379183Y-76200000D01*
X112379183Y-76200000D02*
X113157000Y-76200000D01*
X108656120Y-63202820D02*
X108153200Y-63202820D01*
X108153200Y-63202820D02*
X107533429Y-63822591D01*
X107533429Y-63822591D02*
X107533429Y-75799246D01*
X107533429Y-75799246D02*
X107934183Y-76200000D01*
X107934183Y-76200000D02*
X108712000Y-76200000D01*
X117556280Y-65930780D02*
X118059200Y-65930780D01*
X118059200Y-65930780D02*
X118507601Y-66379181D01*
X118507601Y-66379181D02*
X118507601Y-74802216D01*
X118507601Y-74802216D02*
X118379817Y-74930000D01*
X118379817Y-74930000D02*
X117602000Y-74930000D01*
D16*
X117556280Y-65930780D02*
X117656610Y-65930780D01*
D15*
X113111280Y-65930780D02*
X113614200Y-65930780D01*
X113614200Y-65930780D02*
X114062601Y-66379181D01*
X114062601Y-66379181D02*
X114062601Y-74802216D01*
X114062601Y-74802216D02*
X113934817Y-74930000D01*
X113934817Y-74930000D02*
X113157000Y-74930000D01*
D16*
X113111280Y-65930780D02*
X113211610Y-65930780D01*
D15*
X108666280Y-65930780D02*
X109169200Y-65930780D01*
X109169200Y-65930780D02*
X109617601Y-66379181D01*
X109617601Y-66379181D02*
X109617601Y-74802216D01*
X109617601Y-74802216D02*
X109489817Y-74930000D01*
X109489817Y-74930000D02*
X108712000Y-74930000D01*
D16*
X108666280Y-65930780D02*
X108766610Y-65930780D01*
D15*
X117535960Y-67830700D02*
X117535960Y-70825360D01*
X117535960Y-70825360D02*
X117795040Y-71084440D01*
X113090960Y-67830700D02*
X113090960Y-70825360D01*
X113090960Y-70825360D02*
X113350040Y-71084440D01*
X108645960Y-67830700D02*
X108645960Y-70825360D01*
X108645960Y-70825360D02*
X108905040Y-71084440D01*
X116880639Y-65204341D02*
X116880639Y-66944817D01*
X116880639Y-66944817D02*
X116880639Y-71668639D01*
X117535960Y-66931540D02*
X116893916Y-66931540D01*
X116893916Y-66931540D02*
X116880639Y-66944817D01*
X117556280Y-65031620D02*
X117053360Y-65031620D01*
X116880639Y-71668639D02*
X117052001Y-71840001D01*
X117053360Y-65031620D02*
X116880639Y-65204341D01*
X117052001Y-71840001D02*
X117602000Y-72390000D01*
D16*
X117546120Y-64101980D02*
X117546120Y-65021460D01*
X117546120Y-65021460D02*
X117556280Y-65031620D01*
D15*
X112435639Y-65204341D02*
X112435639Y-66944817D01*
X112435639Y-66944817D02*
X112435639Y-71668639D01*
X113090960Y-66931540D02*
X112448916Y-66931540D01*
X112448916Y-66931540D02*
X112435639Y-66944817D01*
X113111280Y-65031620D02*
X112608360Y-65031620D01*
X112435639Y-71668639D02*
X112607001Y-71840001D01*
X112608360Y-65031620D02*
X112435639Y-65204341D01*
X112607001Y-71840001D02*
X113157000Y-72390000D01*
D16*
X113101120Y-64101980D02*
X113101120Y-65021460D01*
X113101120Y-65021460D02*
X113111280Y-65031620D01*
D15*
X107990639Y-65204341D02*
X107990639Y-66944817D01*
X107990639Y-66944817D02*
X107990639Y-71668639D01*
X108645960Y-66931540D02*
X108003916Y-66931540D01*
X108003916Y-66931540D02*
X107990639Y-66944817D01*
X108666280Y-65031620D02*
X108163360Y-65031620D01*
X107990639Y-71668639D02*
X108162001Y-71840001D01*
X108163360Y-65031620D02*
X107990639Y-65204341D01*
X108162001Y-71840001D02*
X108712000Y-72390000D01*
D16*
X108656120Y-64101980D02*
X108656120Y-65021460D01*
X108656120Y-65021460D02*
X108666280Y-65031620D01*
M02*
