M48
;DRILL file {pcbnew (2014-12-04 BZR 5312)-product} date 4/7/2015 10:47:20 PM
;FORMAT={-:-/ absolute / inch / decimal}
FMAT,2
INCH,TZ
T1C0.013
T2C0.026
%
G90
G05
M72
T1
X4.19Y-2.822
X4.19Y-2.848
X4.19Y-3.012
X4.19Y-3.038
X4.2876Y-2.7986
X4.362Y-3.014
X4.362Y-3.035
X4.363Y-2.824
X4.363Y-2.842
X4.4626Y-2.7986
X4.537Y-2.823
X4.538Y-2.843
X4.538Y-3.013
X4.538Y-3.037
X4.6376Y-2.7986
X4.71Y-2.822
X4.71Y-2.848
X4.71Y-3.012
X4.71Y-3.038
T2
X4.28Y-2.85
X4.28Y-2.9
X4.28Y-2.95
X4.28Y-3.
X4.455Y-2.85
X4.455Y-2.9
X4.455Y-2.95
X4.455Y-3.
X4.63Y-2.85
X4.63Y-2.9
X4.63Y-2.95
X4.63Y-3.
T0
M30
