G04 #@! TF.FileFunction,Legend,Top*
%FSLAX46Y46*%
G04 Gerber Fmt 4.6, Leading zero omitted, Abs format (unit mm)*
G04 Created by KiCad (PCBNEW (2014-12-04 BZR 5312)-product) date 4/7/2015 10:47:18 PM*
%MOMM*%
G01*
G04 APERTURE LIST*
%ADD10C,0.100000*%
%ADD11C,0.127000*%
%ADD12C,0.150000*%
G04 APERTURE END LIST*
D10*
D11*
X108741028Y-60681810D02*
X108741028Y-60173810D01*
X108861981Y-60173810D01*
X108934552Y-60198000D01*
X108982933Y-60246381D01*
X109007124Y-60294762D01*
X109031314Y-60391524D01*
X109031314Y-60464095D01*
X109007124Y-60560857D01*
X108982933Y-60609238D01*
X108934552Y-60657619D01*
X108861981Y-60681810D01*
X108741028Y-60681810D01*
X109345790Y-60173810D02*
X109442552Y-60173810D01*
X109490933Y-60198000D01*
X109539314Y-60246381D01*
X109563505Y-60343143D01*
X109563505Y-60512476D01*
X109539314Y-60609238D01*
X109490933Y-60657619D01*
X109442552Y-60681810D01*
X109345790Y-60681810D01*
X109297409Y-60657619D01*
X109249028Y-60609238D01*
X109224838Y-60512476D01*
X109224838Y-60343143D01*
X109249028Y-60246381D01*
X109297409Y-60198000D01*
X109345790Y-60173810D01*
X110168266Y-60681810D02*
X110168266Y-60173810D01*
X110458552Y-60681810D01*
X110458552Y-60173810D01*
X110797218Y-60173810D02*
X110893980Y-60173810D01*
X110942361Y-60198000D01*
X110990742Y-60246381D01*
X111014933Y-60343143D01*
X111014933Y-60512476D01*
X110990742Y-60609238D01*
X110942361Y-60657619D01*
X110893980Y-60681810D01*
X110797218Y-60681810D01*
X110748837Y-60657619D01*
X110700456Y-60609238D01*
X110676266Y-60512476D01*
X110676266Y-60343143D01*
X110700456Y-60246381D01*
X110748837Y-60198000D01*
X110797218Y-60173810D01*
X111160075Y-60173810D02*
X111450361Y-60173810D01*
X111305218Y-60681810D02*
X111305218Y-60173810D01*
X112006742Y-60681810D02*
X112006742Y-60173810D01*
X112127695Y-60173810D01*
X112200266Y-60198000D01*
X112248647Y-60246381D01*
X112272838Y-60294762D01*
X112297028Y-60391524D01*
X112297028Y-60464095D01*
X112272838Y-60560857D01*
X112248647Y-60609238D01*
X112200266Y-60657619D01*
X112127695Y-60681810D01*
X112006742Y-60681810D01*
X112514742Y-60415714D02*
X112684076Y-60415714D01*
X112756647Y-60681810D02*
X112514742Y-60681810D01*
X112514742Y-60173810D01*
X112756647Y-60173810D01*
X112974361Y-60681810D02*
X112974361Y-60173810D01*
X113167885Y-60173810D01*
X113216266Y-60198000D01*
X113240457Y-60222190D01*
X113264647Y-60270571D01*
X113264647Y-60343143D01*
X113240457Y-60391524D01*
X113216266Y-60415714D01*
X113167885Y-60439905D01*
X112974361Y-60439905D01*
X113458171Y-60536667D02*
X113700076Y-60536667D01*
X113409790Y-60681810D02*
X113579123Y-60173810D01*
X113748457Y-60681810D01*
X113917790Y-60681810D02*
X113917790Y-60173810D01*
X114208076Y-60681810D01*
X114208076Y-60173810D01*
X114449980Y-60415714D02*
X114619314Y-60415714D01*
X114691885Y-60681810D02*
X114449980Y-60681810D01*
X114449980Y-60173810D01*
X114691885Y-60173810D01*
X115151504Y-60681810D02*
X114909599Y-60681810D01*
X114909599Y-60173810D01*
X115320837Y-60681810D02*
X115320837Y-60173810D01*
X115514361Y-60173810D02*
X115853028Y-60173810D01*
X115514361Y-60681810D01*
X115853028Y-60681810D01*
X116046552Y-60415714D02*
X116215886Y-60415714D01*
X116288457Y-60681810D02*
X116046552Y-60681810D01*
X116046552Y-60173810D01*
X116288457Y-60173810D01*
X116723886Y-60125429D02*
X117159315Y-60778571D01*
X117594744Y-60149619D02*
X117159315Y-60802762D01*
D12*
X107696000Y-77216000D02*
X109474000Y-77216000D01*
X109474000Y-77216000D02*
X109474000Y-71374000D01*
X109474000Y-71374000D02*
X107696000Y-71374000D01*
X107696000Y-71374000D02*
X107696000Y-77216000D01*
X108276120Y-63402400D02*
X109036120Y-63392400D01*
X108275120Y-63906400D02*
X108275120Y-64414400D01*
X108275120Y-64414400D02*
X109037120Y-64414400D01*
X109037120Y-64414400D02*
X109037120Y-63906400D01*
X108275120Y-63398400D02*
X108275120Y-62890400D01*
X108275120Y-62890400D02*
X109037120Y-62890400D01*
X109037120Y-62890400D02*
X109037120Y-63398400D01*
X109046280Y-65731200D02*
X108286280Y-65741200D01*
X109047280Y-65227200D02*
X109047280Y-64719200D01*
X109047280Y-64719200D02*
X108285280Y-64719200D01*
X108285280Y-64719200D02*
X108285280Y-65227200D01*
X109047280Y-65735200D02*
X109047280Y-66243200D01*
X109047280Y-66243200D02*
X108285280Y-66243200D01*
X108285280Y-66243200D02*
X108285280Y-65735200D01*
X109025960Y-67631120D02*
X108265960Y-67641120D01*
X109026960Y-67127120D02*
X109026960Y-66619120D01*
X109026960Y-66619120D02*
X108264960Y-66619120D01*
X108264960Y-66619120D02*
X108264960Y-67127120D01*
X109026960Y-67635120D02*
X109026960Y-68143120D01*
X109026960Y-68143120D02*
X108264960Y-68143120D01*
X108264960Y-68143120D02*
X108264960Y-67635120D01*
X112721120Y-63402400D02*
X113481120Y-63392400D01*
X112720120Y-63906400D02*
X112720120Y-64414400D01*
X112720120Y-64414400D02*
X113482120Y-64414400D01*
X113482120Y-64414400D02*
X113482120Y-63906400D01*
X112720120Y-63398400D02*
X112720120Y-62890400D01*
X112720120Y-62890400D02*
X113482120Y-62890400D01*
X113482120Y-62890400D02*
X113482120Y-63398400D01*
X113491280Y-65731200D02*
X112731280Y-65741200D01*
X113492280Y-65227200D02*
X113492280Y-64719200D01*
X113492280Y-64719200D02*
X112730280Y-64719200D01*
X112730280Y-64719200D02*
X112730280Y-65227200D01*
X113492280Y-65735200D02*
X113492280Y-66243200D01*
X113492280Y-66243200D02*
X112730280Y-66243200D01*
X112730280Y-66243200D02*
X112730280Y-65735200D01*
X113470960Y-67631120D02*
X112710960Y-67641120D01*
X113471960Y-67127120D02*
X113471960Y-66619120D01*
X113471960Y-66619120D02*
X112709960Y-66619120D01*
X112709960Y-66619120D02*
X112709960Y-67127120D01*
X113471960Y-67635120D02*
X113471960Y-68143120D01*
X113471960Y-68143120D02*
X112709960Y-68143120D01*
X112709960Y-68143120D02*
X112709960Y-67635120D01*
X112141000Y-77216000D02*
X113919000Y-77216000D01*
X113919000Y-77216000D02*
X113919000Y-71374000D01*
X113919000Y-71374000D02*
X112141000Y-71374000D01*
X112141000Y-71374000D02*
X112141000Y-77216000D01*
X117166120Y-63402400D02*
X117926120Y-63392400D01*
X117165120Y-63906400D02*
X117165120Y-64414400D01*
X117165120Y-64414400D02*
X117927120Y-64414400D01*
X117927120Y-64414400D02*
X117927120Y-63906400D01*
X117165120Y-63398400D02*
X117165120Y-62890400D01*
X117165120Y-62890400D02*
X117927120Y-62890400D01*
X117927120Y-62890400D02*
X117927120Y-63398400D01*
X117936280Y-65731200D02*
X117176280Y-65741200D01*
X117937280Y-65227200D02*
X117937280Y-64719200D01*
X117937280Y-64719200D02*
X117175280Y-64719200D01*
X117175280Y-64719200D02*
X117175280Y-65227200D01*
X117937280Y-65735200D02*
X117937280Y-66243200D01*
X117937280Y-66243200D02*
X117175280Y-66243200D01*
X117175280Y-66243200D02*
X117175280Y-65735200D01*
X117915960Y-67631120D02*
X117155960Y-67641120D01*
X117916960Y-67127120D02*
X117916960Y-66619120D01*
X117916960Y-66619120D02*
X117154960Y-66619120D01*
X117154960Y-66619120D02*
X117154960Y-67127120D01*
X117916960Y-67635120D02*
X117916960Y-68143120D01*
X117916960Y-68143120D02*
X117154960Y-68143120D01*
X117154960Y-68143120D02*
X117154960Y-67635120D01*
X116586000Y-77216000D02*
X118364000Y-77216000D01*
X118364000Y-77216000D02*
X118364000Y-71374000D01*
X118364000Y-71374000D02*
X116586000Y-71374000D01*
X116586000Y-71374000D02*
X116586000Y-77216000D01*
M02*
